<svg width="300" height="300" viewBox="0 0 300 300" fill="none" xmlns="http://www.w3.org/2000/svg">
<g clip-path="url(#clip0_4388_4741)">
<path d="M72.911 39.34C75.536 39.276 77.996 39.656 80.418 40.696C90.86 45.177 96.1041 59.242 100.044 69.119C100.642 68.826 101.249 68.551 101.864 68.294C127.168 57.616 156.885 56.342 183.255 63.698C188.406 65.135 193.338 67.07 198.284 69.084C200.113 62.075 206.966 49.019 212.276 44.199C216.16 40.672 220.794 39.081 226.019 39.378C232.872 39.768 239.139 43.002 243.665 48.125C248.489 53.582 251.409 61.439 250.95 68.738C250.445 76.803 245.621 83.789 239.532 88.811C237.596 90.408 235.32 91.697 233.475 93.371L233.182 93.64C238.558 97.908 243.084 102.579 246.287 108.717C248.477 112.919 250.35 118.047 250.897 122.794C251.256 125.925 250.782 128.594 252.005 131.627C254.483 137.776 257.161 143.964 259.988 149.964C264.354 159.232 269.505 168.485 271.304 178.701C271.751 181.227 272.423 185.754 270.777 187.922C270.093 188.821 269.337 189.043 268.265 189.172C268.182 189.182 268.096 189.189 268.013 189.199C267.196 190.601 270.025 201.853 266.541 206.611C265.899 207.488 265.101 207.888 264.046 208.069C263.685 208.13 262.869 208.193 262.601 208.423C261.58 209.299 260.513 213.459 259.713 214.971C255.872 222.227 248.641 227.864 242.225 232.776C198.577 263.243 117.438 278.106 55.2251 232.415C48.8101 227.59 42.406 221.919 38.609 214.727C37.588 212.791 37.0051 210.652 36.0031 208.699C35.4481 208.169 34.9461 208.223 34.2331 208.13C33.3271 208.013 32.8741 207.898 32.2981 207.124C28.9591 202.649 29.9861 194.58 30.6391 189.377C29.5721 189.221 28.64 188.989 27.931 188.12C22.196 181.069 36.118 155.412 39.648 147.859C41.67 143.535 43.482 139.096 45.355 134.704C46.336 132.404 47.5641 130.037 48.3221 127.668C48.7641 126.29 48.6 124.517 48.736 123.067C48.987 120.38 49.7901 117.522 50.6691 114.97C53.6671 106.267 58.609 100.088 65.577 94.244C63.384 92.745 61.1911 91.25 59.1411 89.557C52.7831 84.308 47.891 77.597 47.174 69.162C46.544 61.741 49.45 53.937 54.26 48.327C59.226 42.535 65.429 39.947 72.911 39.34Z" fill="#401C13"/>
<path d="M195.11 91.551C195.722 91.308 196.34 91.083 196.963 90.875C197.587 90.666 198.215 90.475 198.848 90.301C199.483 90.127 200.122 89.97 200.765 89.831C201.408 89.692 202.053 89.571 202.701 89.467C203.35 89.363 204.002 89.278 204.656 89.21C205.311 89.141 205.966 89.091 206.622 89.059C207.279 89.027 207.937 89.013 208.594 89.017C209.252 89.021 209.909 89.043 210.565 89.083C220.003 89.023 229.932 93.848 236.556 100.403C244.261 108.03 248.282 117.947 248.294 128.751C248.294 129.222 248.285 129.692 248.267 130.162C248.249 130.632 248.224 131.102 248.192 131.571C248.157 132.04 248.115 132.509 248.065 132.976C248.014 133.444 247.955 133.911 247.886 134.376C247.82 134.842 247.745 135.306 247.662 135.769C247.579 136.232 247.487 136.693 247.386 137.153C247.287 137.613 247.179 138.071 247.064 138.526C246.946 138.982 246.822 139.436 246.69 139.888C246.558 140.339 246.418 140.788 246.27 141.234C246.122 141.681 245.966 142.125 245.801 142.566C245.637 143.006 245.465 143.444 245.286 143.879C245.107 144.314 244.92 144.746 244.725 145.174C244.531 145.602 244.329 146.027 244.119 146.448C243.909 146.869 243.692 147.286 243.467 147.7C243.243 148.113 243.011 148.523 242.772 148.928C242.534 149.333 242.288 149.734 242.034 150.13C241.807 150.484 241.47 150.894 241.326 151.283C241.815 152.95 240.352 153.686 241.585 155.48C242.593 154.237 243.487 152.965 244.359 151.623C246.321 148.839 247.623 145.689 248.773 142.505C249.28 140.659 249.891 138.786 250.189 136.895C252.108 141.772 254.162 146.592 256.353 151.354C261.19 161.763 268.009 173.274 268.026 185.041C266.593 183.542 265.179 182.026 263.782 180.492C262.923 179.851 262.476 179.573 261.368 179.708L261.419 179.988C263.192 189.067 265.704 193.772 263.604 203.506C262.806 201.462 262.049 199.39 261.168 197.38C260.655 196.858 260.582 196.694 259.876 196.558C258.458 198.03 259.288 202.451 258.963 204.465C258.658 206.357 258.062 208.352 257.337 210.129C255.516 214.597 252.3 218.337 248.936 221.726C244.024 226.68 237.89 228.353 231.916 231.917C227.839 234.349 179.063 251.261 178.763 251.906C178.763 251.906 137.999 254.34 138.119 254.63C137.514 254.064 124.791 254.895 91.6361 245.727C87.2331 244.509 77.4301 240.432 73.3351 238.394C70.9711 237.218 68.6501 235.963 66.3731 234.626C64.0961 233.29 61.8681 231.877 59.6881 230.386C53.8311 226.355 48.2171 221.558 44.1381 215.688C41.7981 212.324 40.0871 208.34 39.5131 204.263C39.2071 202.09 39.806 198.35 38.803 196.494C38.154 196.274 38.178 196.428 37.594 196.716L35.9741 200.166C35.5091 201.272 35.1421 202.434 34.7421 203.569C34.1431 201.13 33.8941 198.804 33.7791 196.296C34.0381 190.627 35.6301 185.215 37.2021 179.801C37.1071 179.718 37.0271 179.614 36.9181 179.55C36.4161 179.259 35.938 179.564 35.458 179.737C33.914 181.354 32.0011 183.056 30.7611 184.907C28.4571 177.941 39.9421 156.307 43.2111 149.228C45.2561 144.702 47.2011 140.134 49.0451 135.522C49.4321 137.643 49.8691 139.726 50.4071 141.813C53.4431 149.658 57.439 155.683 63.652 161.368L64.202 161.715L64.874 162.208C65.984 163.092 67.0761 163.877 68.2951 164.606C70.7601 166.222 73.3181 167.391 76.0451 168.496L79.456 169.56C80.599 169.832 81.74 170.117 82.896 170.333C84.305 170.536 85.7221 170.72 87.1261 170.96C90.2931 171.178 93.2931 171.052 96.4461 170.734C98.2851 170.043 100.585 169.926 102.517 169.382C108.864 167.591 114.372 164.033 119.307 159.746C122.791 156.427 125.512 152.669 128.035 148.591C130.256 144.005 131.608 139.589 132.678 134.619C133.674 133.89 134.736 133.24 135.769 132.564C143.328 129.061 151.819 128.181 159.747 131.106C161.309 131.682 162.794 132.41 164.273 133.172C165.189 133.824 166.133 134.418 167.088 135.011C168.084 140.412 169.712 144.945 172.291 149.796C173.621 151.323 174.6 153.203 175.836 154.819L176.336 154.112C177.11 154.139 177.789 154.057 178.553 153.926L178.228 153.492C176.292 151.208 174.769 148.612 173.475 145.925C172.957 144.932 172.495 143.914 172.088 142.871C169.087 135.425 168.052 124.423 171.246 116.874C171.59 115.516 172.122 114.169 172.679 112.885C177.034 102.881 185.013 95.511 195.11 91.551Z" fill="#E3A969"/>
<path d="M195.109 91.551C195.721 91.308 196.34 91.083 196.963 90.875C197.587 90.666 198.214 90.475 198.847 90.301C199.482 90.127 200.122 89.97 200.765 89.831C201.408 89.692 202.052 89.571 202.7 89.467C203.349 89.363 204.002 89.278 204.656 89.21C205.311 89.141 205.966 89.091 206.622 89.059C207.279 89.027 207.936 89.013 208.593 89.017C209.251 89.021 209.909 89.043 210.565 89.083C220.003 89.023 229.932 93.848 236.556 100.403C244.261 108.03 248.282 117.947 248.294 128.751C248.294 129.222 248.285 129.692 248.267 130.162C248.249 130.632 248.223 131.102 248.191 131.571C248.156 132.04 248.115 132.509 248.065 132.976C248.014 133.444 247.954 133.911 247.885 134.376C247.819 134.842 247.744 135.306 247.661 135.769C247.578 136.232 247.486 136.693 247.385 137.153C247.286 137.613 247.178 138.071 247.063 138.526C246.945 138.982 246.822 139.436 246.69 139.888C246.558 140.339 246.417 140.788 246.269 141.234C246.121 141.681 245.965 142.125 245.8 142.566C245.636 143.006 245.465 143.444 245.286 143.879C245.107 144.314 244.92 144.746 244.725 145.174C244.531 145.602 244.328 146.027 244.118 146.448C243.908 146.869 243.692 147.286 243.467 147.7C243.243 148.113 243.011 148.523 242.772 148.928C242.534 149.333 242.288 149.734 242.034 150.13C241.807 150.484 241.469 150.894 241.325 151.283C241.814 152.95 240.351 153.686 241.584 155.48C240.664 156.602 239.781 157.747 238.699 158.721C237.855 159.531 237.015 160.339 236.114 161.086C234.503 162.308 232.911 163.532 231.185 164.587C230.513 165.022 229.828 165.437 229.131 165.831C228.435 166.224 227.726 166.596 227.005 166.945C226.286 167.295 225.556 167.622 224.815 167.927C224.075 168.231 223.324 168.513 222.566 168.771C221.347 169.138 219.948 169.707 218.696 169.854L218.454 169.988L215.97 170.455C214.681 170.598 213.209 170.638 211.966 170.977C208.658 171.156 205.565 170.975 202.278 170.558C193.218 169.082 185.473 164.882 178.955 158.466C177.906 157.258 176.867 156.042 175.836 154.819L176.336 154.112C177.11 154.139 177.789 154.057 178.553 153.926L178.228 153.492C176.292 151.208 174.769 148.612 173.475 145.925C172.957 144.932 172.495 143.914 172.088 142.871C169.087 135.425 168.052 124.423 171.246 116.874C171.59 115.516 172.121 114.169 172.678 112.885C177.033 102.881 185.012 95.511 195.109 91.551Z" fill="#401C13"/>
<path d="M210.565 89.083C220.003 89.023 229.932 93.848 236.556 100.403C244.261 108.03 248.282 117.947 248.294 128.751C248.294 129.222 248.285 129.692 248.267 130.162C248.249 130.632 248.223 131.102 248.191 131.571C248.156 132.04 248.115 132.509 248.065 132.976C248.014 133.444 247.954 133.911 247.885 134.376C247.819 134.842 247.744 135.306 247.661 135.769C247.578 136.232 247.486 136.693 247.385 137.153C247.286 137.613 247.178 138.071 247.063 138.526C246.945 138.982 246.822 139.436 246.69 139.888C246.558 140.339 246.417 140.788 246.269 141.234C246.121 141.681 245.965 142.125 245.8 142.566C245.636 143.006 245.465 143.444 245.286 143.879C245.107 144.314 244.92 144.746 244.725 145.174C244.531 145.602 244.328 146.027 244.118 146.448C243.908 146.869 243.692 147.286 243.467 147.7C243.243 148.113 243.011 148.523 242.772 148.928C242.534 149.333 242.288 149.734 242.034 150.13C241.807 150.484 241.469 150.894 241.325 151.283C241.814 152.95 240.351 153.686 241.584 155.48C240.664 156.602 239.781 157.747 238.699 158.721C237.855 159.531 237.015 160.339 236.114 161.086C234.503 162.308 232.911 163.532 231.185 164.587C230.513 165.022 229.828 165.437 229.131 165.831C228.435 166.224 227.726 166.596 227.005 166.945C226.286 167.295 225.556 167.622 224.815 167.927C224.075 168.231 223.324 168.513 222.566 168.771C221.347 169.138 219.948 169.707 218.696 169.854L218.454 169.988L215.97 170.455C214.681 170.598 213.209 170.638 211.966 170.977C208.658 171.156 205.565 170.975 202.278 170.558C193.218 169.082 185.473 164.882 178.955 158.466C177.906 157.258 176.867 156.042 175.836 154.819L176.336 154.112C177.11 154.139 177.789 154.057 178.553 153.926L178.228 153.492C176.292 151.208 174.769 148.612 173.475 145.925C172.957 144.932 172.495 143.914 172.088 142.871C169.087 135.425 168.052 124.423 171.246 116.874C171.539 116.474 171.84 116.029 172.204 115.69C173.156 114.803 174.96 115.163 176.14 115.27C176.026 115.55 175.915 115.833 175.808 116.116C175.7 116.4 175.597 116.684 175.498 116.971C175.398 117.257 175.303 117.544 175.211 117.833C175.118 118.121 175.029 118.411 174.944 118.702C174.86 118.993 174.779 119.285 174.703 119.578C174.625 119.871 174.55 120.165 174.48 120.46C174.411 120.755 174.345 121.051 174.282 121.347C174.22 121.644 174.163 121.941 174.109 122.239C174.054 122.537 174.004 122.836 173.958 123.135C173.911 123.435 173.868 123.735 173.829 124.035C173.79 124.336 173.755 124.637 173.724 124.938C173.691 125.24 173.662 125.541 173.64 125.844C173.617 126.146 173.598 126.448 173.582 126.751C173.566 127.053 173.554 127.356 173.545 127.659C173.537 127.962 173.532 128.265 173.532 128.568C173.532 128.871 173.537 129.174 173.545 129.477C173.554 129.78 173.564 130.083 173.579 130.385C173.595 130.688 173.615 130.99 173.638 131.292C173.661 131.594 173.687 131.896 173.718 132.198C173.749 132.499 173.785 132.8 173.824 133.101C173.863 133.401 173.906 133.701 173.953 134.001C173.999 134.3 174.047 134.599 174.101 134.897C174.156 135.195 174.216 135.493 174.278 135.789C174.34 136.086 174.404 136.382 174.472 136.677C174.542 136.972 174.615 137.266 174.692 137.559C174.77 137.852 174.852 138.144 174.937 138.435C175.022 138.726 175.109 139.016 175.2 139.304C175.293 139.593 175.39 139.881 175.489 140.167C175.588 140.453 175.69 140.738 175.795 141.022C175.903 141.305 176.014 141.588 176.127 141.868C176.241 142.149 176.36 142.428 176.482 142.706C176.603 142.984 176.726 143.26 176.855 143.534C177.386 144.67 177.975 145.775 178.623 146.848C179.272 147.921 179.976 148.956 180.734 149.954C180.983 150.281 181.238 150.603 181.497 150.921C181.758 151.239 182.023 151.552 182.293 151.86C182.563 152.169 182.839 152.473 183.121 152.771C183.401 153.07 183.686 153.364 183.978 153.653C184.269 153.942 184.565 154.226 184.866 154.504C185.167 154.783 185.473 155.056 185.784 155.324C186.095 155.592 186.411 155.854 186.732 156.111C187.051 156.368 187.374 156.619 187.703 156.865C188.032 157.11 188.365 157.35 188.702 157.584C189.039 157.818 189.38 158.046 189.725 158.268C190.07 158.49 190.419 158.706 190.772 158.916C191.124 159.126 191.478 159.33 191.838 159.528C192.198 159.725 192.562 159.916 192.928 160.101C193.294 160.286 193.664 160.465 194.036 160.637C194.409 160.809 194.783 160.974 195.161 161.133C195.54 161.292 195.923 161.444 196.307 161.59C196.689 161.735 197.074 161.874 197.463 162.007C197.85 162.139 198.241 162.264 198.635 162.383C199.027 162.501 199.423 162.613 199.82 162.718C200.217 162.823 200.615 162.92 201.014 163.011C201.414 163.102 201.816 163.186 202.22 163.263C202.622 163.34 203.026 163.41 203.433 163.473C203.838 163.535 204.245 163.591 204.651 163.64C205.058 163.688 205.466 163.73 205.875 163.765C206.285 163.799 206.694 163.826 207.103 163.846C207.513 163.867 207.923 163.88 208.333 163.885C208.743 163.891 209.152 163.89 209.563 163.882C209.973 163.873 210.384 163.857 210.794 163.835C211.204 163.812 211.614 163.782 212.022 163.745C212.431 163.708 212.837 163.664 213.244 163.613C213.651 163.561 214.057 163.503 214.463 163.438C214.868 163.372 215.272 163.3 215.674 163.221C216.076 163.141 216.477 163.055 216.877 162.961C217.276 162.868 217.674 162.768 218.071 162.66C218.466 162.553 218.861 162.439 219.254 162.318C219.646 162.197 220.036 162.069 220.423 161.934C220.81 161.8 221.195 161.658 221.578 161.51C221.96 161.362 222.339 161.208 222.717 161.046C223.095 160.885 223.47 160.717 223.841 160.543C224.212 160.368 224.58 160.188 224.944 160C225.311 159.813 225.673 159.62 226.031 159.42C226.389 159.22 226.744 159.014 227.095 158.802C227.445 158.59 227.792 158.372 228.135 158.147C228.48 157.923 228.821 157.693 229.156 157.457C229.491 157.221 229.821 156.979 230.149 156.731C230.476 156.483 230.799 156.23 231.116 155.971C231.435 155.712 231.749 155.448 232.058 155.178C232.367 154.908 232.671 154.633 232.971 154.353C233.27 154.072 233.565 153.787 233.855 153.496C234.143 153.205 234.428 152.909 234.708 152.609C234.986 152.308 235.259 152.003 235.528 151.693C235.797 151.382 236.06 151.068 236.319 150.748C236.576 150.429 236.828 150.105 237.073 149.777C237.321 149.449 237.561 149.117 237.795 148.78C238.029 148.443 238.258 148.103 238.481 147.758C238.704 147.414 238.921 147.066 239.131 146.714C239.342 146.361 239.548 146.006 239.747 145.647C239.944 145.288 240.135 144.925 240.32 144.559C240.506 144.193 240.685 143.824 240.859 143.452C241.032 143.08 241.199 142.705 241.358 142.327C241.518 141.949 241.67 141.568 241.816 141.185C241.963 140.802 242.104 140.416 242.237 140.028C242.369 139.64 242.494 139.25 242.614 138.857C242.733 138.465 242.846 138.07 242.951 137.674C243.057 137.277 243.156 136.879 243.247 136.479C243.34 136.079 243.425 135.678 243.502 135.275C243.58 134.872 243.65 134.468 243.713 134.063C243.777 133.658 243.834 133.251 243.885 132.844C243.934 132.437 243.975 132.029 244.011 131.62C244.047 131.211 244.075 130.802 244.096 130.392C244.116 129.983 244.131 129.573 244.139 129.162C244.145 128.752 244.144 128.342 244.135 127.931C244.127 127.521 244.114 127.111 244.092 126.702C244.071 126.292 244.042 125.883 244.005 125.474C243.969 125.066 243.926 124.658 243.875 124.25C243.825 123.843 243.768 123.437 243.704 123.032C243.639 122.627 243.568 122.223 243.489 121.82C243.41 121.417 243.322 121.016 243.23 120.617C243.138 120.217 243.04 119.819 242.933 119.423C242.827 119.026 242.713 118.632 242.592 118.24C242.472 117.848 242.346 117.458 242.213 117.07C242.079 116.682 241.938 116.296 241.79 115.914C241.644 115.531 241.49 115.15 241.329 114.773C241.168 114.395 241.001 114.021 240.828 113.649C240.654 113.277 240.474 112.908 240.289 112.543C240.102 112.177 239.908 111.815 239.709 111.457C239.511 111.098 239.306 110.743 239.095 110.391C238.883 110.039 238.665 109.692 238.441 109.347C238.218 109.003 237.988 108.663 237.752 108.327C237.518 107.991 237.276 107.659 237.028 107.332C236.781 107.004 236.53 106.681 236.273 106.362C236.014 106.044 235.749 105.729 235.481 105.42C235.21 105.11 234.936 104.805 234.656 104.505C234.376 104.205 234.092 103.91 233.802 103.62C233.512 103.33 233.218 103.045 232.918 102.765C232.617 102.485 232.311 102.211 232.002 101.941C231.909 101.861 231.817 101.781 231.724 101.702C231.496 101.508 231.265 101.317 231.032 101.129C230.801 100.942 230.567 100.757 230.329 100.575C230.092 100.393 229.853 100.214 229.612 100.038C229.372 99.863 229.127 99.69 228.88 99.52C228.634 99.351 228.387 99.184 228.138 99.021C227.887 98.858 227.635 98.697 227.381 98.541C227.127 98.384 226.871 98.23 226.612 98.08C226.353 97.929 226.092 97.782 225.83 97.638C225.568 97.495 225.305 97.354 225.04 97.217C224.774 97.08 224.507 96.946 224.239 96.816C223.97 96.685 223.7 96.558 223.428 96.435C223.157 96.312 222.883 96.192 222.608 96.075C222.333 95.958 222.056 95.846 221.778 95.736C221.5 95.627 221.219 95.521 220.937 95.418C220.657 95.316 220.376 95.217 220.092 95.122C219.809 95.026 219.526 94.935 219.241 94.847C218.955 94.759 218.667 94.674 218.381 94.594C218.093 94.513 217.805 94.436 217.515 94.362C217.226 94.289 216.935 94.219 216.644 94.153C216.352 94.087 216.06 94.025 215.767 93.966C215.474 93.908 215.179 93.853 214.885 93.802C214.59 93.75 214.297 93.703 214.002 93.659C213.706 93.616 213.41 93.576 213.113 93.539C212.817 93.503 212.519 93.471 212.221 93.442C211.923 93.414 211.627 93.389 211.329 93.368C211.031 93.347 210.733 93.329 210.435 93.316C210.136 93.302 209.837 93.293 209.539 93.287C209.24 93.281 208.941 93.279 208.643 93.28C208.344 93.282 208.043 93.287 207.744 93.297C207.446 93.306 207.149 93.319 206.851 93.336C206.552 93.353 206.252 93.373 205.954 93.398C205.658 93.422 205.361 93.45 205.063 93.482C206.796 92.395 206.849 91.545 207.923 90.008C208.55 89.112 209.573 89.194 210.565 89.083Z" fill="#E3A969"/>
<path d="M175.836 154.819L176.336 154.112C177.11 154.139 177.789 154.057 178.553 153.926C185.682 162.01 195.164 167.483 206.085 168.159C208.575 168.302 211.062 168.259 213.546 168.029C214.93 168.879 218.162 167.978 218.829 169.243L218.697 169.854L218.455 169.988L215.97 170.455C214.681 170.598 213.209 170.638 211.966 170.977C208.658 171.156 205.565 170.975 202.278 170.558C193.218 169.082 185.474 164.882 178.956 158.466C177.907 157.258 176.867 156.042 175.836 154.819Z" fill="#391B10"/>
<path d="M236.273 157.121C236.334 157.464 236.324 158.1 236.639 158.274C237.078 158.516 237.564 158.506 238.05 158.56C238.463 158.606 238.292 158.572 238.699 158.721C237.855 159.531 237.015 160.339 236.114 161.086C234.503 162.308 232.911 163.532 231.185 164.587C230.513 165.022 229.828 165.437 229.131 165.831C228.435 166.224 227.726 166.596 227.005 166.945C226.286 167.295 225.556 167.622 224.815 167.927C224.075 168.231 223.325 168.513 222.567 168.771C221.348 169.138 219.949 169.707 218.697 169.854L218.829 169.243C218.162 167.978 214.93 168.879 213.546 168.029C219.249 167.266 224.183 165.436 229.175 162.608C231.744 160.997 234.063 159.198 236.273 157.121Z" fill="#401C13"/>
<path d="M236.273 157.121C238.094 155.289 239.695 153.282 241.326 151.283C241.815 152.95 240.352 153.686 241.585 155.48C240.665 156.602 239.781 157.747 238.699 158.721C238.292 158.572 238.463 158.606 238.05 158.56C237.564 158.506 237.078 158.516 236.639 158.274C236.324 158.1 236.334 157.464 236.273 157.121Z" fill="#391B10"/>
<path d="M195.11 91.551C195.722 91.308 196.34 91.083 196.963 90.875C197.587 90.666 198.215 90.475 198.848 90.301C199.483 90.127 200.122 89.97 200.765 89.831C201.408 89.692 202.053 89.571 202.701 89.467C203.35 89.363 204.002 89.278 204.656 89.21C205.311 89.141 205.966 89.091 206.622 89.059C207.279 89.027 207.937 89.013 208.594 89.017C209.252 89.021 209.909 89.043 210.565 89.083C209.573 89.194 208.55 89.112 207.923 90.008C206.849 91.545 206.797 92.395 205.064 93.482C203.998 93.597 202.938 93.76 201.885 93.971C200.834 94.183 199.794 94.441 198.765 94.748C198.449 94.842 198.135 94.94 197.823 95.043C197.51 95.145 197.199 95.252 196.89 95.364C196.581 95.475 196.273 95.591 195.965 95.711C195.659 95.83 195.355 95.955 195.052 96.083C194.749 96.212 194.448 96.345 194.149 96.481C193.849 96.618 193.552 96.759 193.257 96.905C192.961 97.05 192.667 97.199 192.376 97.353C192.085 97.506 191.796 97.664 191.509 97.825C191.223 97.987 190.939 98.152 190.657 98.322C190.376 98.491 190.096 98.664 189.817 98.842C189.541 99.019 189.267 99.2 188.995 99.385C188.721 99.57 188.451 99.759 188.184 99.951C187.919 100.144 187.655 100.34 187.393 100.54C187.131 100.74 186.872 100.943 186.617 101.15C186.361 101.357 186.109 101.568 185.86 101.782C185.609 101.996 185.362 102.214 185.118 102.435C184.875 102.656 184.635 102.881 184.398 103.109C184.16 103.336 183.926 103.567 183.694 103.802C183.463 104.036 183.235 104.274 183.011 104.514C182.786 104.755 182.566 104.999 182.349 105.246C182.131 105.493 181.917 105.743 181.707 105.996C181.496 106.249 181.288 106.504 181.085 106.763C180.881 107.022 180.682 107.283 180.486 107.547C180.289 107.812 180.097 108.079 179.908 108.348C179.721 108.618 179.536 108.89 179.354 109.165C179.173 109.44 178.996 109.717 178.824 109.997C178.65 110.277 178.48 110.559 178.316 110.843C178.15 111.128 177.988 111.415 177.83 111.704C177.674 111.993 177.521 112.284 177.371 112.577C177.221 112.871 177.077 113.166 176.937 113.463C176.795 113.761 176.658 114.06 176.526 114.361C176.393 114.662 176.264 114.965 176.141 115.27C174.961 115.163 173.157 114.803 172.205 115.69C171.841 116.029 171.539 116.474 171.246 116.874C171.59 115.516 172.122 114.169 172.679 112.885C177.034 102.881 185.013 95.511 195.11 91.551Z" fill="#FCD84E"/>
<path d="M179.092 141.745C178.672 139.866 177.816 137.983 177.337 136.08C177.239 135.685 177.149 135.289 177.066 134.891C176.983 134.493 176.907 134.094 176.839 133.693C176.772 133.293 176.712 132.891 176.658 132.488C176.606 132.085 176.561 131.681 176.524 131.276C176.487 130.872 176.457 130.466 176.436 130.06C176.413 129.655 176.399 129.249 176.392 128.842C176.386 128.436 176.387 128.029 176.397 127.623C176.405 127.217 176.421 126.811 176.446 126.405C176.47 125.999 176.503 125.594 176.544 125.19C176.583 124.785 176.63 124.382 176.685 123.979C176.74 123.576 176.803 123.175 176.873 122.775C176.943 122.374 177.02 121.976 177.105 121.578C177.191 121.181 177.284 120.785 177.383 120.391C177.484 119.998 177.593 119.606 177.708 119.216C177.824 118.826 177.946 118.439 178.074 118.054C178.204 117.669 178.342 117.286 178.487 116.906C178.583 116.657 178.682 116.409 178.785 116.162C178.887 115.915 178.992 115.669 179.1 115.425C179.209 115.181 179.32 114.938 179.434 114.696C179.548 114.455 179.665 114.214 179.786 113.976C179.906 113.737 180.03 113.5 180.157 113.264C180.282 113.028 180.411 112.794 180.543 112.562C180.674 112.329 180.809 112.098 180.945 111.869C181.084 111.64 181.225 111.413 181.368 111.187C181.511 110.961 181.657 110.737 181.805 110.515C181.953 110.293 182.104 110.073 182.259 109.854C182.413 109.636 182.571 109.419 182.73 109.204C182.888 108.99 183.05 108.777 183.216 108.567C183.38 108.356 183.547 108.148 183.716 107.941C183.886 107.734 184.058 107.53 184.234 107.328C184.408 107.126 184.585 106.926 184.764 106.728C184.944 106.53 185.127 106.334 185.311 106.141C185.495 105.947 185.681 105.756 185.87 105.567C186.06 105.378 186.252 105.192 186.446 105.008C186.64 104.824 186.836 104.642 187.034 104.463C187.231 104.283 187.431 104.107 187.635 103.932C187.837 103.758 188.041 103.586 188.248 103.417C188.454 103.247 188.664 103.081 188.875 102.916C189.085 102.752 189.297 102.59 189.512 102.431C189.729 102.273 189.946 102.116 190.164 101.963C190.382 101.809 190.603 101.658 190.826 101.51C191.049 101.362 191.273 101.216 191.497 101.074C191.723 100.931 191.951 100.791 192.181 100.654C192.41 100.517 192.641 100.383 192.874 100.251C193.107 100.12 193.341 99.991 193.577 99.866C193.813 99.74 194.051 99.617 194.29 99.497C194.529 99.378 194.769 99.261 195.01 99.147C195.253 99.033 195.496 98.922 195.74 98.814C195.983 98.706 196.227 98.6 196.473 98.498C196.719 98.395 196.965 98.296 197.213 98.2C197.46 98.103 197.709 98.01 197.96 97.92C198.21 97.83 198.462 97.743 198.714 97.659C198.966 97.575 199.219 97.494 199.473 97.416C199.729 97.339 199.984 97.264 200.24 97.193C200.495 97.121 200.753 97.053 201.011 96.988C201.269 96.923 201.527 96.862 201.788 96.803C202.046 96.744 202.306 96.689 202.567 96.637C202.827 96.585 203.088 96.536 203.35 96.49C203.612 96.444 203.875 96.402 204.139 96.363C204.402 96.324 204.666 96.288 204.93 96.255C205.193 96.222 205.458 96.193 205.723 96.167C205.987 96.141 206.251 96.118 206.517 96.099C206.782 96.079 207.047 96.063 207.313 96.05C207.58 96.037 207.846 96.027 208.111 96.021C208.376 96.014 208.642 96.011 208.909 96.012C209.175 96.012 209.44 96.015 209.705 96.022C209.972 96.029 210.238 96.039 210.504 96.052C210.769 96.065 211.034 96.082 211.299 96.102C211.565 96.122 211.83 96.145 212.095 96.172C212.359 96.198 212.623 96.228 212.886 96.261C213.152 96.294 213.415 96.33 213.677 96.37C213.941 96.409 214.204 96.452 214.466 96.498C214.728 96.544 214.989 96.593 215.25 96.646C215.51 96.698 215.77 96.754 216.028 96.813C216.289 96.872 216.548 96.934 216.805 97C217.062 97.065 217.319 97.134 217.576 97.205C217.832 97.277 218.087 97.352 218.34 97.43C218.596 97.508 218.85 97.589 219.102 97.673C219.353 97.758 219.603 97.845 219.854 97.936C220.105 98.026 220.354 98.12 220.601 98.216C220.847 98.31 221.091 98.408 221.334 98.508C221.578 98.608 221.82 98.711 222.061 98.817C222.302 98.924 222.541 99.033 222.779 99.145C223.017 99.257 223.253 99.372 223.487 99.49C223.723 99.608 223.957 99.729 224.188 99.852C224.42 99.976 224.652 100.103 224.881 100.232C225.109 100.362 225.336 100.494 225.562 100.629C225.788 100.764 226.012 100.902 226.234 101.043C226.457 101.183 226.677 101.326 226.895 101.472C227.115 101.619 227.332 101.767 227.547 101.919C227.762 102.07 227.975 102.224 228.187 102.381C228.398 102.538 228.607 102.697 228.814 102.859C229.022 103.021 229.228 103.185 229.429 103.352C229.633 103.519 229.835 103.689 230.035 103.861C230.233 104.033 230.43 104.207 230.626 104.384C230.819 104.561 231.011 104.74 231.202 104.921C231.392 105.103 231.58 105.287 231.766 105.473C231.951 105.66 232.135 105.848 232.318 106.039C232.498 106.23 232.676 106.423 232.852 106.618C233.028 106.813 233.202 107.01 233.375 107.21C233.546 107.409 233.714 107.611 233.88 107.815C234.048 108.018 234.212 108.224 234.373 108.432C234.534 108.64 234.693 108.849 234.849 109.061C235.006 109.273 235.159 109.486 235.311 109.702C235.46 109.917 235.609 110.135 235.755 110.354C235.9 110.573 236.042 110.794 236.182 111.016C236.322 111.239 236.46 111.463 236.595 111.69C236.728 111.916 236.86 112.143 236.99 112.373C237.119 112.602 237.244 112.833 237.366 113.066C237.49 113.298 237.611 113.532 237.728 113.767C237.845 114.003 237.96 114.24 238.072 114.478C238.183 114.716 238.291 114.956 238.397 115.197C241.964 122.704 242.208 131.655 239.468 139.47C239.379 139.72 239.287 139.969 239.193 140.216C239.098 140.464 239 140.71 238.9 140.956C238.799 141.201 238.695 141.445 238.587 141.688C238.481 141.93 238.371 142.172 238.257 142.412C238.145 142.652 238.03 142.89 237.911 143.127C237.792 143.365 237.671 143.6 237.547 143.835C237.423 144.069 237.296 144.301 237.166 144.533C237.036 144.764 236.903 144.993 236.768 145.221C236.632 145.449 236.493 145.675 236.353 145.9C236.212 146.124 236.068 146.347 235.921 146.568C235.775 146.789 235.626 147.008 235.474 147.226C235.321 147.443 235.167 147.658 235.01 147.872C234.853 148.086 234.692 148.297 234.529 148.507C234.368 148.717 234.204 148.925 234.036 149.13C233.869 149.336 233.699 149.539 233.526 149.741C233.354 149.943 233.179 150.142 233.001 150.339C232.825 150.537 232.646 150.732 232.464 150.924C232.282 151.117 232.097 151.308 231.91 151.496C231.724 151.685 231.535 151.871 231.343 152.055C231.153 152.239 230.96 152.42 230.765 152.599C230.568 152.778 230.37 152.955 230.172 153.129C229.971 153.303 229.769 153.475 229.564 153.644C229.36 153.814 229.154 153.98 228.946 154.145C228.738 154.309 228.528 154.471 228.316 154.63C228.104 154.789 227.89 154.946 227.674 155.1C227.458 155.253 227.239 155.405 227.02 155.553C226.8 155.702 226.579 155.848 226.356 155.991C226.133 156.134 225.908 156.275 225.682 156.412C225.456 156.55 225.228 156.685 224.998 156.817C224.767 156.949 224.535 157.079 224.302 157.205C224.07 157.332 223.835 157.456 223.599 157.576C223.363 157.697 223.126 157.815 222.886 157.93C215.96 161.248 207.61 162.23 200.206 159.937C198.411 159.469 196.597 158.769 195.005 157.814C193.087 157.602 188.773 154.25 187.447 152.859C185.645 151.89 184.022 149.49 182.723 147.903C181.439 145.864 180.235 143.87 179.092 141.745Z" fill="#E3A969"/>
<path d="M238.397 115.197C241.964 122.704 242.208 131.655 239.468 139.47C239.379 139.72 239.287 139.969 239.193 140.216C239.098 140.464 239 140.71 238.9 140.956C238.799 141.201 238.695 141.445 238.587 141.688C238.481 141.93 238.371 142.172 238.257 142.412C238.145 142.652 238.03 142.89 237.911 143.127C237.792 143.365 237.671 143.6 237.547 143.835C237.423 144.069 237.296 144.301 237.166 144.533C237.036 144.764 236.903 144.993 236.768 145.221C236.632 145.449 236.493 145.675 236.353 145.9C236.212 146.124 236.068 146.347 235.921 146.568C235.775 146.789 235.626 147.008 235.474 147.226C235.321 147.443 235.167 147.658 235.01 147.872C234.853 148.086 234.692 148.297 234.529 148.507C234.368 148.717 234.204 148.925 234.036 149.13C233.869 149.336 233.699 149.539 233.526 149.741C233.354 149.943 233.179 150.142 233.001 150.339C232.825 150.537 232.646 150.732 232.464 150.924C232.282 151.117 232.097 151.308 231.91 151.496C231.724 151.685 231.535 151.871 231.343 152.055C231.153 152.239 230.96 152.42 230.765 152.599C230.568 152.778 230.37 152.955 230.172 153.129C229.971 153.303 229.769 153.475 229.564 153.644C229.36 153.814 229.154 153.98 228.946 154.145C228.738 154.309 228.528 154.471 228.316 154.63C228.104 154.789 227.89 154.946 227.674 155.1C227.458 155.253 227.239 155.405 227.02 155.553C226.8 155.702 226.579 155.848 226.356 155.991C226.133 156.134 225.908 156.275 225.682 156.412C225.456 156.55 225.228 156.685 224.998 156.817C224.767 156.949 224.535 157.079 224.302 157.205C224.07 157.332 223.835 157.456 223.599 157.576C223.363 157.697 223.126 157.815 222.886 157.93C215.96 161.248 207.61 162.23 200.206 159.937C201.627 158.105 203.397 156.404 204.942 154.659L217.066 141.086C218.992 138.934 221.08 136.814 222.764 134.468C223.438 134.094 223.826 133.672 224.322 133.088L224.466 132.17C226.519 130.783 237.554 118.27 238.057 116.403C238.133 116.125 238.187 115.841 238.275 115.568L238.397 115.197Z" fill="#F0C799"/>
<path d="M222.764 134.468C218.555 133.359 215.76 130.995 210.889 130.288C204.119 129.306 197.762 131.012 192.159 134.859C190.965 135.681 189.979 136.741 188.795 137.572C188.101 138.058 187.696 138.112 186.873 137.979C186.544 137.684 186.36 137.638 186.27 137.174C185.967 135.584 187.073 133.753 187.947 132.502C191.358 127.62 196.512 124.833 202.33 123.868C208.741 122.805 215.462 123.662 220.794 127.542C222.779 128.986 223.922 130.667 224.322 133.088C223.826 133.672 223.438 134.094 222.764 134.468Z" fill="#401C13"/>
<path d="M201.863 100.586C202.374 100.614 202.796 100.66 203.277 100.846C203.812 101.053 204.41 101.434 204.6 101.999C204.886 102.845 204.564 103.652 204.166 104.402C200.98 110.387 193.763 116.221 187.342 118.291C186.649 118.232 186.053 118.195 185.428 117.844C184.849 117.518 184.456 116.995 184.307 116.349C183.963 114.864 185.345 112.895 186.165 111.732C189.832 106.541 195.462 101.722 201.863 100.586Z" fill="#FEFEFE"/>
<path d="M135.769 132.564C143.328 129.061 151.819 128.181 159.747 131.106C161.309 131.682 162.794 132.41 164.273 133.172C165.189 133.824 166.133 134.418 167.088 135.011C168.084 140.412 169.712 144.945 172.291 149.796C173.621 151.323 174.6 153.203 175.836 154.819C176.867 156.042 177.907 157.258 178.956 158.466C179.178 161.065 181.165 163.714 182.144 166.129C186.024 175.696 189.031 188.193 186.358 198.369C185.804 198.513 185.364 198.638 184.937 199.043C184.356 199.595 183.865 200.676 183.443 201.377C181.917 203.916 180.43 206.27 178.128 208.191C174.363 211.338 169.576 212.434 164.752 211.956C159.202 211.404 154.815 209.08 151.319 204.756C151.331 202.615 151.346 200.461 151.224 198.325C151.114 196.436 151.028 193.374 149.544 192.034L149.034 192.097C146.741 194.712 147.364 201.377 147.33 204.666C146.075 206.189 144.798 207.532 143.165 208.655C138.777 211.67 133.343 212.654 128.141 211.67C123.482 210.791 119.168 208.12 116.729 203.989C115.833 202.471 115.007 200.41 113.869 199.094C113.35 198.496 112.956 198.53 112.228 198.394C112.434 196.907 111.645 194.968 111.528 193.428C111.212 189.258 111.531 185.085 112.248 180.971C113.152 175.789 114.805 170.767 116.762 165.895C117.489 164.086 118.855 161.898 119.245 160.065C119.268 159.959 119.287 159.853 119.307 159.746C122.791 156.427 125.512 152.669 128.035 148.591C130.256 144.005 131.608 139.589 132.678 134.619C133.674 133.89 134.736 133.24 135.769 132.564Z" fill="#BF8353"/>
<path d="M135.769 132.564C143.328 129.061 151.819 128.181 159.747 131.106C161.309 131.682 162.794 132.41 164.273 133.172C165.189 133.824 166.133 134.418 167.088 135.011C168.084 140.412 169.712 144.945 172.291 149.796C171.236 149.134 170.257 148.191 169.268 147.426C166.473 145.267 163.575 143.298 160.286 141.974C151.934 138.613 141.596 139.36 133.955 144.254C132.576 145.138 129.398 148.157 128.313 148.531C128.223 148.562 128.127 148.571 128.035 148.591C130.256 144.005 131.608 139.589 132.678 134.619C133.674 133.89 134.736 133.24 135.769 132.564Z" fill="#E3A969"/>
<path d="M128.541 166.502C129.238 166.558 129.959 166.604 130.631 166.81C133.459 167.674 135.926 170.289 137.179 172.916C137.621 173.843 138.091 174.954 137.738 175.969C137.119 176.523 137.041 176.604 136.228 176.735L134.318 174.425C131.6 173.756 128.532 172.869 126.863 170.403C126.464 169.814 126.187 169.088 126.448 168.382C126.799 167.428 127.672 166.903 128.541 166.502Z" fill="#401C13"/>
<path d="M169.051 166.499C169.771 166.538 170.333 166.642 170.987 166.961C171.492 167.207 172.129 167.547 172.259 168.147C172.413 168.855 172.132 169.535 171.763 170.126C170.298 172.483 167.75 173.669 165.149 174.294C164.293 174.5 163.982 174.907 163.406 175.544L163.179 175.8C163.05 175.945 162.869 176.158 162.718 176.271C162.215 176.647 162.085 176.605 161.522 176.476C161.377 176.269 161.258 176.124 161.187 175.868C160.838 174.634 161.551 172.8 162.127 171.732C163.655 168.897 166.05 167.393 169.051 166.499Z" fill="#401C13"/>
<path d="M259.355 180.669C260.075 180.484 260.734 180.281 261.418 179.989L261.469 180.269C263.242 189.348 265.754 194.053 263.654 203.787C262.856 201.743 262.099 199.671 261.218 197.661C260.705 197.139 260.632 196.975 259.926 196.839C258.508 198.311 259.338 202.732 259.013 204.746C258.708 206.638 258.112 208.633 257.387 210.41C255.566 214.878 252.35 218.618 248.986 222.007C244.074 226.961 238.349 230.999 232.375 234.563C228.298 236.995 222.496 239.606 218.248 241.724C204.283 248.688 186.028 251.712 178.29 253.422C143.754 261.052 102.758 251.264 98.1624 249.876C86.5364 246.364 77.4803 240.713 73.3853 238.675C71.0213 237.499 68.7004 236.244 66.4234 234.907C64.1464 233.571 61.9184 232.158 59.7384 230.667C53.8814 226.636 48.2674 221.839 44.1884 215.969C41.8484 212.605 40.1374 208.621 39.5634 204.544C39.2574 202.371 39.8563 198.631 38.8533 196.775C38.2043 196.555 38.2283 196.709 37.6443 196.997L37.3604 196.88C37.3784 196.077 37.4714 195.313 37.5854 194.517C37.6904 193.457 37.6744 192.146 38.4064 191.338C39.0574 191.521 39.1534 191.797 39.5714 192.298C42.6594 196.677 44.9713 201.58 48.0793 205.987C59.6263 222.361 75.3144 233.638 93.8174 241.062C109.831 247.486 134.012 252.227 151.283 251.551C162.929 251.094 174.162 248.911 185.463 246.219C193.21 244.37 200.805 242.613 208.149 239.456C227.333 231.216 246.838 214.663 255.395 195.3C256.474 192.862 257.731 189.837 258.239 187.212C258.603 185.33 258.474 182.685 259.216 180.973C259.26 180.871 259.308 180.77 259.355 180.669Z" fill="#BF8353"/>
<path d="M259.305 180.388C260.025 180.203 260.684 180 261.368 179.708L261.419 179.988C263.192 189.067 265.704 193.772 263.604 203.506C262.806 201.462 262.049 199.39 261.168 197.38C261.268 193.093 260.577 184.36 259.305 180.388Z" fill="#DDAE85"/>
<path d="M147.33 204.666C147.364 201.377 146.741 194.712 149.034 192.097L149.544 192.034C151.028 193.374 151.114 196.436 151.224 198.325C151.346 200.461 151.331 202.615 151.319 204.756C154.815 209.08 159.202 211.404 164.752 211.956C169.576 212.434 174.363 211.338 178.128 208.191C180.43 206.27 181.917 203.916 183.443 201.377C183.865 200.676 184.356 199.595 184.937 199.043C185.364 198.638 185.804 198.513 186.358 198.369C186.37 198.406 186.382 198.445 186.397 198.484C186.526 198.865 186.663 199.255 186.707 199.656C187.034 202.529 184.693 206.833 182.947 209.067C179.014 214.099 173.804 215.757 167.681 216.541C167.82 218.985 167.833 221.43 167.72 223.875C167.4 229.739 166.304 236.05 161.685 240.122C157.969 243.396 152.659 244.883 147.767 244.539C143.145 244.214 138.449 242.332 135.416 238.733C130.523 232.927 130.193 223.572 130.765 216.396C127.798 216.216 124.868 215.596 122.178 214.302C117.466 212.034 114.183 207.927 112.49 203.04C111.947 201.475 111.478 199.956 112.228 198.394C112.956 198.53 113.35 198.496 113.869 199.094C115.007 200.41 115.833 202.471 116.729 203.989C119.168 208.12 123.482 210.791 128.141 211.67C133.343 212.654 138.777 211.67 143.165 208.655C144.798 207.532 146.075 206.189 147.33 204.666Z" fill="#401C13"/>
<path d="M151.211 210.564C154.942 213.821 158.853 215.618 163.763 216.384C163.953 219.089 164.246 221.975 163.838 224.663C163.729 228.762 162.737 233.394 159.903 236.516C157.308 239.373 153.379 240.676 149.6 240.759C145.767 240.842 141.836 239.646 139.072 236.899C135.108 232.959 134.565 227.402 134.469 222.109L134.515 216.304C139.584 215.317 143.416 214.045 147.386 210.703C147.363 213.415 147.411 216.125 147.53 218.835C147.742 221.023 147.503 225.398 149.2 227.004L149.654 226.899C151.053 224.805 150.943 220.952 151.089 218.523C151.131 215.872 151.216 213.215 151.211 210.564Z" fill="#F8817A"/>
<path d="M151.211 210.564C154.942 213.821 158.853 215.618 163.763 216.384C163.953 219.089 164.246 221.975 163.838 224.663C163.826 223.87 163.794 223.203 163.57 222.441C159.878 220.566 155.091 219.597 151.089 218.523C151.131 215.872 151.216 213.215 151.211 210.564Z" fill="#E95D5B"/>
<path d="M134.515 216.304C139.584 215.317 143.416 214.045 147.386 210.703C147.363 213.415 147.411 216.125 147.53 218.835C143.008 219.556 138.86 220.879 134.469 222.109L134.515 216.304Z" fill="#E95D5B"/>
<path d="M63.6522 161.368L64.2022 161.715L64.8742 162.208C65.9842 163.092 67.0762 163.877 68.2952 164.606C70.7602 166.222 73.3182 167.391 76.0452 168.496L79.4562 169.56C80.5992 169.832 81.7402 170.117 82.8962 170.333C84.3052 170.536 85.7222 170.72 87.1262 170.96C90.2932 171.178 93.2932 171.052 96.4462 170.734C96.5822 171.173 96.5412 171.61 96.4702 172.06C96.0302 174.851 94.6082 176.885 92.3132 178.486C85.4132 183.301 75.1422 183.882 67.1152 182.423C62.6432 181.61 56.5172 179.71 53.8782 175.715C52.7452 173.999 52.3212 171.779 52.8172 169.772C54.0652 164.721 59.6182 163.78 63.4382 161.5C63.5102 161.457 63.5802 161.412 63.6522 161.368Z" fill="#F5AEAD"/>
<path d="M76.0446 168.496L79.4556 169.56C79.0136 171.684 77.7386 174.684 75.8676 175.925C75.2246 176.351 74.7346 176.388 73.9976 176.252C73.5256 175.746 73.3206 175.471 73.2586 174.763C73.0806 172.728 74.8376 170.046 76.0446 168.496Z" fill="#F8817A"/>
<path d="M82.8961 170.333C84.3051 170.536 85.7221 170.72 87.1261 170.96C85.1571 171.353 85.1141 174.703 83.2401 175.542C82.6591 175.803 82.3411 175.668 81.7751 175.501L81.4951 174.966C81.3971 173.341 82.2391 171.777 82.8961 170.333Z" fill="#F8817A"/>
<path d="M69.3509 168.819C70.1169 168.814 70.3929 168.958 70.9579 169.426C71.0859 169.78 71.2039 170.108 71.1819 170.492C71.0739 172.366 69.6469 174.162 68.3099 175.346C67.5209 175.331 67.1629 175.261 66.5569 174.735C66.4389 174.377 66.3369 174.051 66.3739 173.667C66.5479 171.881 67.9919 169.899 69.3509 168.819Z" fill="#F8817A"/>
<path d="M63.5433 167.766C63.8463 167.96 64.1223 168.2 64.4043 168.422C64.6093 168.856 64.6903 169.108 64.6723 169.601C64.6143 171.181 63.0843 172.831 61.9293 173.754C61.3583 173.543 61.2443 173.495 60.8533 173.035C60.7343 172.554 60.6823 172.221 60.7553 171.722C60.9843 170.165 62.3333 168.66 63.5433 167.766Z" fill="#F8817A"/>
<path d="M236.114 161.086C239.971 163.618 245.323 165.475 246.341 170.59C246.678 172.298 246.231 173.963 245.264 175.39C242.308 179.759 235.767 181.764 230.831 182.601C223.172 183.899 212.762 183.062 206.277 178.367C204.38 176.994 202.723 175.044 202.347 172.667C202.232 171.948 202.222 171.28 202.278 170.558C205.565 170.975 208.658 171.156 211.966 170.977C213.209 170.638 214.681 170.598 215.97 170.455L218.455 169.988L218.697 169.854C219.949 169.707 221.348 169.138 222.567 168.771C223.325 168.513 224.075 168.231 224.815 167.927C225.556 167.622 226.286 167.295 227.005 166.945C227.726 166.596 228.435 166.224 229.131 165.831C229.828 165.437 230.513 165.022 231.185 164.587C232.911 163.532 234.503 162.308 236.114 161.086Z" fill="#F5AEAD"/>
<path d="M218.697 169.854C219.949 169.707 221.348 169.138 222.567 168.771C223.848 170.263 225.706 173.241 225.574 175.303C225.538 175.886 225.394 176.034 225.052 176.479C224.498 176.696 224.085 176.854 223.506 176.589C221.28 175.569 219.881 169.977 218.455 169.988L218.697 169.854Z" fill="#F8817A"/>
<path d="M211.966 170.977C213.209 170.638 214.681 170.598 215.97 170.455C216.614 171.924 217.349 173.451 217.191 175.092C216.844 175.661 216.844 175.635 216.207 175.84C215.374 175.736 214.969 175.411 214.473 174.766C213.802 173.89 212.781 171.407 211.966 170.977Z" fill="#F8817A"/>
<path d="M228.265 168.498C228.675 168.542 229.029 168.587 229.42 168.752C230.665 169.279 231.663 171.096 232.005 172.333C232.379 173.682 232.359 174.363 231.668 175.579C231.212 175.502 230.767 175.411 230.367 175.163C228.887 174.243 227.791 172.351 227.552 170.652C227.415 169.673 227.696 169.23 228.265 168.498Z" fill="#F8817A"/>
<path d="M234.161 168.047C234.439 168.082 234.715 168.112 234.991 168.162C235.953 168.336 236.815 169.24 237.286 170.056C237.96 171.227 238.06 172.356 237.718 173.634C237.403 173.608 237.025 173.593 236.724 173.497C235.765 173.193 234.742 171.903 234.332 171.017C233.807 169.884 233.716 169.218 234.161 168.047Z" fill="#F8817A"/>
<path d="M30.7611 184.907C28.4571 177.941 39.9421 156.307 43.2111 149.228C45.2561 144.702 47.2011 140.134 49.0451 135.522C49.4321 137.643 49.8691 139.726 50.4071 141.813C48.8721 143.41 47.1671 149.598 46.1701 151.961C44.3551 156.26 35.4851 174.862 35.3681 178.662C35.3571 179.012 35.417 179.391 35.458 179.737C33.914 181.354 32.0011 183.056 30.7611 184.907Z" fill="#F0C799"/>
<path d="M250.189 136.895C252.108 141.772 254.162 146.592 256.353 151.354C261.19 161.763 268.009 173.274 268.026 185.041C266.593 183.542 265.179 182.026 263.782 180.492C262.125 172.707 256.509 160.959 253.233 153.375C251.68 149.785 250.401 146.054 248.773 142.505C249.28 140.659 249.891 138.786 250.189 136.895Z" fill="#F0C799"/>
<path d="M37.2023 179.801C37.8443 179.992 38.4873 180.042 38.9363 180.551C38.7523 184.499 37.3873 188.87 36.6043 192.769C36.3143 194.133 34.9793 198.733 35.6893 199.812C35.7723 199.939 35.8793 200.046 35.9743 200.166C35.5093 201.272 35.1423 202.434 34.7423 203.569C34.1433 201.13 33.8943 198.804 33.7793 196.296C34.0383 190.627 35.6303 185.215 37.2023 179.801Z" fill="#F0C799"/>
<path d="M89.8034 89.023C100.488 88.827 110.436 92.645 118.146 100.086C118.381 100.311 118.613 100.539 118.843 100.77C119.072 101.001 119.299 101.235 119.523 101.471C119.747 101.708 119.968 101.947 120.186 102.19C120.403 102.432 120.618 102.676 120.83 102.923C121.042 103.171 121.251 103.421 121.456 103.673C121.662 103.926 121.864 104.181 122.064 104.438C122.263 104.696 122.459 104.956 122.652 105.218C122.845 105.48 123.035 105.745 123.221 106.012C123.407 106.279 123.59 106.549 123.77 106.82C123.95 107.092 124.126 107.366 124.299 107.642C124.472 107.918 124.641 108.196 124.807 108.476C124.973 108.756 125.136 109.038 125.295 109.322C125.454 109.607 125.609 109.893 125.761 110.18C125.913 110.469 126.062 110.758 126.207 111.05C126.351 111.342 126.492 111.635 126.63 111.93C126.767 112.226 126.901 112.523 127.031 112.821C127.162 113.12 127.288 113.42 127.411 113.721C127.534 114.023 127.653 114.326 127.768 114.63C127.883 114.935 127.995 115.241 128.103 115.548C128.21 115.856 128.314 116.164 128.414 116.474C128.514 116.784 128.61 117.095 128.703 117.408C128.795 117.72 128.884 118.033 128.968 118.347C129.053 118.662 129.133 118.978 129.21 119.294C129.287 119.61 129.36 119.928 129.429 120.246C129.498 120.564 129.563 120.883 129.624 121.203C129.685 121.523 129.742 121.844 129.795 122.165C129.848 122.486 129.897 122.808 129.942 123.131C129.988 123.453 130.029 123.776 130.066 124.1C130.103 124.423 130.136 124.747 130.165 125.072C130.194 125.396 130.22 125.721 130.241 126.046C130.262 126.371 130.279 126.696 130.292 127.021C130.305 127.346 130.314 127.672 130.319 127.998C130.32 128.326 130.317 128.655 130.31 128.983C130.303 129.311 130.293 129.64 130.278 129.968C130.263 130.296 130.244 130.624 130.221 130.952C130.198 131.28 130.171 131.607 130.14 131.934C130.109 132.261 130.074 132.588 130.035 132.914C129.996 133.24 129.954 133.566 129.907 133.891C129.86 134.216 129.809 134.54 129.754 134.864C129.699 135.188 129.641 135.512 129.578 135.834C129.515 136.157 129.449 136.478 129.378 136.799C129.307 137.12 129.233 137.44 129.155 137.759C129.076 138.078 128.994 138.396 128.908 138.713C128.822 139.03 128.732 139.346 128.638 139.661C128.544 139.975 128.446 140.289 128.345 140.601C128.243 140.914 128.138 141.225 128.029 141.535C127.92 141.845 127.807 142.153 127.69 142.46C127.573 142.767 127.453 143.073 127.329 143.377C127.205 143.681 127.077 143.984 126.945 144.285C126.814 144.586 126.679 144.885 126.54 145.183C126.401 145.481 126.258 145.777 126.112 146.071C125.966 146.365 125.817 146.658 125.664 146.948C125.51 147.239 125.354 147.528 125.193 147.814C125.033 148.101 124.869 148.386 124.702 148.669C124.535 148.951 124.364 149.232 124.19 149.511C124.016 149.789 123.839 150.066 123.658 150.34C123.477 150.614 123.293 150.886 123.105 151.156C122.918 151.426 122.727 151.693 122.533 151.958C122.339 152.223 122.142 152.486 121.941 152.746C121.741 153.007 121.537 153.264 121.33 153.52C121.124 153.775 120.914 154.028 120.701 154.278C120.488 154.528 120.272 154.776 120.053 155.02C119.834 155.265 119.612 155.508 119.387 155.747C119.162 155.987 118.935 156.223 118.704 156.457C118.479 156.688 118.251 156.917 118.02 157.142C117.789 157.368 117.555 157.59 117.318 157.81C117.082 158.03 116.843 158.246 116.601 158.46C116.359 158.674 116.114 158.885 115.867 159.093C115.62 159.3 115.371 159.505 115.118 159.706C114.866 159.908 114.611 160.106 114.354 160.301C114.097 160.497 113.838 160.689 113.576 160.877C113.314 161.066 113.05 161.252 112.783 161.434C112.517 161.616 112.248 161.795 111.977 161.97C111.706 162.146 111.433 162.318 111.158 162.487C110.883 162.656 110.606 162.821 110.326 162.983C110.047 163.145 109.766 163.303 109.483 163.458C109.199 163.613 108.914 163.764 108.627 163.912C108.34 164.06 108.051 164.204 107.761 164.345C107.47 164.485 107.178 164.622 106.884 164.756C106.59 164.889 106.294 165.019 105.997 165.145C105.7 165.271 105.401 165.393 105.101 165.512C104.801 165.631 104.499 165.746 104.196 165.857C103.893 165.968 103.589 166.075 103.283 166.179C102.977 166.283 102.67 166.382 102.362 166.478C102.054 166.574 101.745 166.666 101.434 166.755C101.123 166.843 100.812 166.927 100.499 167.008C100.187 167.089 99.8735 167.165 99.5595 167.238C99.2445 167.311 98.9295 167.38 98.6125 167.445C98.2965 167.51 97.9805 167.571 97.6625 167.628C97.3445 167.685 97.0264 167.738 96.7064 167.787C96.3874 167.837 96.0685 167.882 95.7485 167.923C95.4285 167.964 95.1074 168.002 94.7864 168.035C94.4654 168.068 94.1435 168.098 93.8215 168.123C93.5005 168.148 93.1784 168.17 92.8554 168.187C92.5334 168.204 92.2105 168.218 91.8885 168.227C91.5655 168.236 91.2425 168.242 90.9195 168.243C83.4975 168.259 76.7614 166.249 70.2974 162.659L67.3724 160.612L65.4764 159.138C62.6834 156.666 59.9635 153.926 57.9325 150.78C52.6425 142.588 49.7325 131.76 51.8485 122.072C53.0905 114.593 56.2905 107.786 61.4065 102.171C68.8505 94.001 78.8124 89.5 89.8034 89.023Z" fill="#E3A969"/>
<path d="M76.0457 157.637C75.0967 157.134 74.1667 156.614 73.2667 156.028C73.0367 155.881 72.8097 155.73 72.5837 155.577C72.3577 155.424 72.1327 155.268 71.9107 155.109C71.6887 154.95 71.4687 154.789 71.2507 154.624C71.0327 154.46 70.8167 154.293 70.6027 154.123C70.3887 153.954 70.1767 153.781 69.9677 153.606C69.7577 153.431 69.5507 153.254 69.3457 153.074C69.1407 152.893 68.9377 152.711 68.7367 152.526C68.5357 152.34 68.3377 152.153 68.1417 151.962C67.9457 151.772 67.7527 151.579 67.5617 151.384C67.3707 151.189 67.1817 150.992 66.9957 150.792C66.8097 150.593 66.6257 150.39 66.4447 150.186C66.2637 149.982 66.0847 149.775 65.9087 149.567C65.7327 149.358 65.5597 149.147 65.3887 148.933C65.2187 148.72 65.0507 148.505 64.8847 148.288C64.7197 148.071 64.5567 147.851 64.3977 147.63C64.2377 147.408 64.0807 147.185 63.9257 146.96C63.7717 146.734 63.6207 146.507 63.4717 146.278C63.3237 146.049 63.1777 145.818 63.0347 145.586C62.8917 145.353 62.7517 145.118 62.6157 144.882C62.4787 144.646 62.3447 144.408 62.2137 144.168C62.0817 143.929 61.9547 143.688 61.8297 143.445C61.7047 143.202 61.5827 142.958 61.4637 142.712C61.3447 142.466 61.2287 142.219 61.1167 141.97C61.0037 141.721 60.8937 141.471 60.7877 141.22C60.6807 140.968 60.5777 140.716 60.4777 140.462C60.3777 140.208 60.2807 139.952 60.1867 139.696C60.0927 139.439 60.0027 139.182 59.9147 138.923C59.8277 138.664 59.7437 138.405 59.6627 138.144C59.5817 137.883 59.5047 137.621 59.4307 137.359C59.3557 137.096 59.2847 136.832 59.2177 136.567C59.1497 136.303 59.0857 136.038 59.0237 135.772C58.9627 135.505 58.9057 135.239 58.8507 134.971C57.1887 126.861 58.9077 117.734 63.5147 110.846C63.6657 110.616 63.8197 110.389 63.9767 110.163C64.1337 109.938 64.2937 109.714 64.4557 109.492C64.6187 109.271 64.7837 109.051 64.9517 108.833C65.1197 108.616 65.2897 108.4 65.4637 108.187C65.6367 107.974 65.8127 107.763 65.9917 107.554C66.1697 107.345 66.3507 107.138 66.5347 106.933C66.7187 106.729 66.9047 106.527 67.0927 106.327C67.2817 106.127 67.4727 105.93 67.6667 105.735C67.8597 105.54 68.0557 105.347 68.2547 105.157C68.4527 104.966 68.6537 104.779 68.8567 104.593C69.0597 104.408 69.2647 104.225 69.4727 104.045C69.6797 103.865 69.8897 103.687 70.1017 103.513C70.3137 103.338 70.5277 103.165 70.7437 102.995C70.9607 102.826 71.1787 102.659 71.3987 102.495C71.6197 102.33 71.8417 102.169 72.0657 102.01C72.2907 101.851 72.5167 101.696 72.7447 101.543C72.9737 101.389 73.2037 101.239 73.4357 101.092C73.6677 100.944 73.9007 100.8 74.1367 100.658C74.3727 100.517 74.6097 100.378 74.8487 100.242C75.0877 100.107 75.3287 99.974 75.5707 99.844C75.8127 99.714 76.0567 99.588 76.3017 99.464C76.5477 99.34 76.7947 99.22 77.0427 99.102C77.2917 98.984 77.5417 98.87 77.7927 98.759C78.0437 98.647 78.2967 98.539 78.5507 98.434C78.8047 98.329 79.0597 98.227 79.3167 98.128C79.5727 98.029 79.8307 97.934 80.0897 97.841C80.3477 97.749 80.6077 97.66 80.8697 97.574C81.1307 97.488 81.3927 97.405 81.6557 97.326C81.9187 97.247 82.1827 97.17 82.4477 97.097C82.7127 97.025 82.9787 96.955 83.2457 96.889C83.5117 96.822 83.7797 96.76 84.0477 96.7C84.3157 96.64 84.5847 96.584 84.8547 96.531C93.5767 94.847 102.12 97.002 109.405 101.931C109.573 101.481 109.697 101.287 109.984 100.919C110.512 100.763 110.941 100.645 111.382 100.303C111.486 100.222 111.588 100.138 111.691 100.055C113.684 101.656 115.562 103.305 117.255 105.226L117.286 105.715C117.352 106.632 117.778 107.429 117.649 108.352L117.384 108.545C116.946 108.328 116.757 108.175 116.476 107.774L115.769 107.625L117.991 110.768C117.937 111.264 117.893 111.7 117.624 112.133C116.567 113.831 112.345 118.831 110.79 120.032C110.5 120.256 110.483 120.251 110.202 120.388L109.422 120.177L110.155 121.315C109.239 123.469 91.0257 142.679 87.7377 146.154L87.1307 145.672C86.4667 147.824 78.1317 156.361 76.0457 157.637Z" fill="#E3A969"/>
<path d="M87.1311 145.672C85.1881 141.429 83.7971 140.463 83.4811 135.393C83.1411 129.946 84.6551 124.375 88.3541 120.274C90.9561 117.39 94.4381 115.508 98.3721 115.352C103.028 115.166 106.128 117.11 109.422 120.177L110.155 121.315C109.239 123.469 91.0261 142.679 87.7381 146.154L87.1311 145.672Z" fill="#401C13"/>
<path d="M95.2049 120.664C95.2769 120.656 95.3479 120.65 95.4199 120.646C95.4919 120.641 95.5639 120.639 95.6359 120.638C95.7079 120.637 95.7799 120.638 95.8519 120.64C95.9229 120.643 95.9949 120.647 96.0669 120.653C96.1379 120.659 96.2099 120.667 96.2809 120.677C96.3519 120.686 96.4229 120.697 96.4939 120.71C96.5649 120.723 96.6349 120.738 96.7049 120.754C96.7749 120.771 96.8449 120.789 96.9139 120.809C96.9829 120.829 97.0519 120.85 97.1199 120.873C97.1879 120.896 97.2559 120.921 97.3219 120.948C97.3889 120.974 97.4559 121.002 97.5209 121.032C97.5869 121.062 97.6509 121.093 97.7149 121.126C97.7789 121.158 97.8419 121.193 97.9049 121.229C97.9669 121.265 98.0289 121.302 98.0889 121.341C98.1489 121.38 98.2089 121.42 98.2679 121.462C98.3259 121.504 98.3839 121.547 98.4399 121.592C98.4959 121.636 98.5519 121.682 98.6059 121.729C98.6599 121.777 98.7129 121.825 98.7649 121.875C98.8169 121.925 98.8669 121.976 98.9169 122.028C98.9659 122.081 99.0139 122.134 99.0609 122.189C99.1069 122.244 99.1529 122.299 99.1969 122.356C99.2409 122.413 99.2829 122.471 99.3249 122.53C99.3659 122.589 99.4059 122.649 99.4439 122.71C99.4819 122.771 99.5189 122.832 99.5539 122.895C99.5889 122.958 99.6229 123.021 99.6549 123.086C99.6869 123.15 99.7179 123.215 99.7469 123.281C99.7759 123.347 99.8029 123.413 99.8289 123.48C99.8549 123.548 99.8788 123.615 99.9018 123.683C99.9238 123.752 99.9449 123.821 99.9639 123.89C99.9829 123.959 99.9999 124.029 100.016 124.099C100.032 124.17 100.046 124.24 100.058 124.311C100.07 124.382 100.081 124.453 100.09 124.524C100.099 124.596 100.106 124.667 100.111 124.739C100.116 124.811 100.12 124.883 100.122 124.954C100.124 125.026 100.124 125.098 100.122 125.17C100.12 125.242 100.117 125.314 100.112 125.386C100.107 125.457 100.1 125.529 100.091 125.6C100.082 125.672 100.072 125.743 100.06 125.814C100.048 125.885 100.034 125.955 100.018 126.025C100.003 126.096 99.9849 126.165 99.9659 126.235C99.9469 126.304 99.9269 126.373 99.9039 126.441C99.8819 126.51 99.8579 126.577 99.8319 126.645C99.8069 126.712 99.7799 126.778 99.7509 126.844C99.7219 126.91 99.6909 126.975 99.6589 127.04C99.6269 127.104 99.5939 127.168 99.5589 127.231C99.5239 127.293 99.4869 127.355 99.4489 127.416C99.4109 127.477 99.3709 127.537 99.3299 127.596C99.2889 127.655 99.2459 127.713 99.2029 127.77C99.1589 127.827 99.1129 127.883 99.0669 127.938C99.0199 127.993 98.9719 128.046 98.9229 128.098C98.8739 128.151 98.8229 128.202 98.7709 128.252C98.7199 128.302 98.6669 128.351 98.6129 128.398C98.5589 128.446 98.5039 128.492 98.4469 128.536C98.3909 128.581 98.3329 128.624 98.2749 128.666C98.2159 128.708 98.1569 128.749 98.0969 128.788C98.0359 128.827 97.9749 128.864 97.9129 128.9C97.8499 128.936 97.7869 128.971 97.7229 129.004C97.6589 129.037 97.5949 129.068 97.5289 129.098C97.4639 129.128 97.3979 129.156 97.3309 129.182C97.2639 129.209 97.1969 129.234 97.1289 129.257C97.0609 129.281 96.9919 129.302 96.9229 129.322C96.8539 129.342 96.7839 129.36 96.7139 129.377C96.6439 129.394 96.5739 129.409 96.5029 129.422C96.4319 129.435 96.3618 129.446 96.2898 129.456C96.1938 129.469 96.0969 129.479 95.9999 129.486C95.9019 129.492 95.8048 129.496 95.7078 129.496C95.6098 129.497 95.5129 129.494 95.4159 129.488C95.3179 129.481 95.2209 129.472 95.1249 129.46C95.0279 129.447 94.9319 129.432 94.8369 129.413C94.7409 129.394 94.6459 129.372 94.5519 129.347C94.4579 129.322 94.3649 129.293 94.2719 129.262C94.1799 129.231 94.0888 129.197 93.9988 129.159C93.9088 129.122 93.8199 129.082 93.7329 129.039C93.6449 128.996 93.5599 128.95 93.4749 128.901C93.3909 128.852 93.3079 128.801 93.2269 128.746C93.1459 128.692 93.0669 128.635 92.9899 128.576C92.9129 128.516 92.8379 128.454 92.7649 128.39C92.6919 128.326 92.6209 128.259 92.5519 128.19C92.4839 128.121 92.4169 128.049 92.3529 127.976C92.2889 127.902 92.2279 127.827 92.1689 127.749C92.1099 127.672 92.0528 127.592 91.9988 127.511C91.9458 127.43 91.8948 127.347 91.8458 127.262C91.7978 127.178 91.7529 127.092 91.7099 127.004C91.6679 126.916 91.6279 126.827 91.5909 126.737C91.5539 126.647 91.5209 126.556 91.4899 126.463C91.4589 126.371 91.4309 126.277 91.4069 126.183C91.3819 126.089 91.3609 125.994 91.3429 125.898C91.3239 125.802 91.3089 125.706 91.2969 125.609C91.2849 125.513 91.2769 125.416 91.2709 125.318C91.2659 125.221 91.2629 125.124 91.2639 125.026C91.2649 124.929 91.2688 124.832 91.2768 124.734C91.2838 124.637 91.2939 124.541 91.3079 124.444C91.3219 124.348 91.3388 124.252 91.3588 124.156C91.3788 124.061 91.4019 123.966 91.4279 123.873C91.4539 123.779 91.4839 123.686 91.5159 123.594C91.5479 123.502 91.5839 123.411 91.6219 123.322C91.6609 123.232 91.7019 123.144 91.7459 123.057C91.7899 122.97 91.8368 122.885 91.8868 122.801C91.9368 122.718 91.9899 122.636 92.0449 122.556C92.0999 122.475 92.1579 122.397 92.2179 122.32C92.2789 122.244 92.3409 122.17 92.4069 122.097C92.4719 122.025 92.5399 121.955 92.6099 121.887C92.6799 121.819 92.7519 121.754 92.8259 121.691C92.8999 121.628 92.9768 121.567 93.0548 121.509C93.1328 121.451 93.2129 121.396 93.2949 121.343C93.3769 121.29 93.4609 121.24 93.5459 121.193C93.6309 121.146 93.7179 121.101 93.8059 121.06C93.8939 121.018 93.9829 120.98 94.0739 120.944C94.1649 120.909 94.2559 120.876 94.3489 120.846C94.4419 120.817 94.5359 120.79 94.6299 120.767C94.7249 120.743 94.8199 120.723 94.9159 120.706C95.0119 120.689 95.1079 120.675 95.2049 120.664Z" fill="#FEFEFE"/>
<path d="M111.691 100.055C113.684 101.656 115.562 103.305 117.255 105.226L117.286 105.715C117.352 106.632 117.778 107.429 117.649 108.352L117.384 108.545C116.946 108.328 116.757 108.175 116.476 107.774L115.769 107.625C115.137 107.301 110.692 102.892 109.405 101.931C109.573 101.481 109.697 101.287 109.984 100.919C110.512 100.763 110.941 100.645 111.382 100.303C111.486 100.222 111.588 100.138 111.691 100.055Z" fill="#391B10"/>
<path d="M82.0416 100.593C82.8656 100.489 83.5836 100.428 84.3996 100.638C84.9546 100.782 85.7376 101.032 86.0136 101.583C86.3506 102.254 86.1376 102.931 85.8556 103.58C83.2306 109.611 75.6596 115.606 69.6736 117.977C68.6446 118.119 67.6736 118.076 66.7096 117.639C66.2026 117.408 65.8526 117.141 65.7376 116.566C65.5426 115.597 66.1336 114.432 66.5546 113.598C69.5466 107.669 75.7996 102.672 82.0416 100.593Z" fill="#FEFEFE"/>
<path d="M117.991 110.768C122.6 118.024 124.439 126.67 122.58 135.13C120.85 143.002 116.682 149.242 110.518 154.328L109.148 155.367C101.22 160.406 92.6709 162.417 83.3799 160.333C80.7939 159.754 78.4119 158.816 76.0459 157.637C78.1319 156.361 86.4669 147.824 87.1309 145.672L87.7379 146.154C91.0259 142.679 109.239 123.469 110.155 121.315L109.422 120.177L110.202 120.388C110.483 120.251 110.5 120.256 110.79 120.032C112.345 118.831 116.567 113.831 117.624 112.133C117.893 111.7 117.937 111.264 117.991 110.768Z" fill="#F0C799"/>
<path d="M110.155 121.315L110.295 121.256C111.274 122.88 112.173 124.464 112.911 126.213C114.643 132.288 114.846 138.455 111.679 144.126C109.722 147.627 106.75 150.345 102.802 151.403C102.576 151.464 102.349 151.519 102.12 151.569C101.892 151.619 101.662 151.663 101.431 151.701C101.2 151.74 100.968 151.772 100.736 151.798C100.504 151.825 100.271 151.846 100.037 151.861C99.8043 151.876 99.5703 151.885 99.3363 151.888C99.1023 151.892 98.8683 151.889 98.6343 151.881C98.4003 151.872 98.1673 151.858 97.9343 151.838C97.7013 151.817 97.4683 151.791 97.2363 151.759C97.0053 151.728 96.7743 151.69 96.5443 151.647C96.3143 151.603 96.0853 151.554 95.8583 151.499C95.6303 151.445 95.4043 151.384 95.1803 151.318C94.9553 151.252 94.7333 151.18 94.5123 151.102C94.2913 151.025 94.0723 150.942 93.8553 150.854C93.6393 150.766 93.4243 150.672 93.2123 150.573C93.0003 150.474 92.7913 150.37 92.5843 150.26C92.3773 150.151 92.1743 150.036 91.9733 149.916C90.3483 148.958 88.8473 147.683 87.7383 146.154C91.0263 142.679 109.239 123.469 110.155 121.315Z" fill="#7B5140"/>
<path d="M105.733 137.273C105.783 137.259 105.833 137.246 105.883 137.234C105.933 137.223 105.984 137.212 106.035 137.203C106.086 137.194 106.137 137.186 106.188 137.18C106.239 137.173 106.291 137.168 106.342 137.163C106.394 137.159 106.445 137.156 106.497 137.155C106.549 137.153 106.6 137.153 106.652 137.154C106.704 137.155 106.755 137.157 106.807 137.16C106.858 137.164 106.91 137.168 106.961 137.174C107.012 137.18 107.064 137.187 107.114 137.196C107.166 137.204 107.216 137.214 107.267 137.225C107.317 137.236 107.367 137.248 107.417 137.261C107.467 137.274 107.517 137.289 107.566 137.305C107.615 137.32 107.664 137.337 107.713 137.355C107.761 137.374 107.809 137.393 107.856 137.413C107.904 137.434 107.951 137.455 107.997 137.478C108.044 137.501 108.089 137.525 108.135 137.55C108.18 137.575 108.225 137.601 108.269 137.628C108.312 137.655 108.356 137.683 108.398 137.713C108.441 137.742 108.483 137.772 108.524 137.803C108.565 137.835 108.605 137.867 108.645 137.9C108.685 137.933 108.723 137.968 108.761 138.003C108.799 138.038 108.836 138.074 108.872 138.111C108.908 138.148 108.943 138.186 108.978 138.224C109.012 138.263 109.045 138.302 109.078 138.343C109.11 138.383 109.141 138.424 109.172 138.466C109.202 138.508 109.231 138.55 109.26 138.593C109.288 138.637 109.315 138.681 109.342 138.725C109.368 138.77 109.393 138.815 109.417 138.861C109.441 138.906 109.463 138.953 109.485 139C109.507 139.047 109.527 139.094 109.547 139.142C109.566 139.19 109.584 139.238 109.601 139.287C109.618 139.336 109.634 139.385 109.649 139.434C109.664 139.484 109.677 139.534 109.689 139.584C109.701 139.634 109.712 139.685 109.722 139.735C109.732 139.786 109.74 139.837 109.748 139.889C109.755 139.94 109.761 139.991 109.766 140.042C109.77 140.094 109.774 140.145 109.776 140.197C109.778 140.249 109.779 140.3 109.779 140.352C109.779 140.404 109.777 140.455 109.775 140.507C109.772 140.559 109.768 140.61 109.763 140.661C109.757 140.713 109.751 140.764 109.743 140.815C109.735 140.866 109.726 140.917 109.716 140.968C109.706 141.018 109.694 141.069 109.682 141.119C109.669 141.169 109.655 141.219 109.64 141.268C109.625 141.318 109.608 141.366 109.591 141.415C109.573 141.464 109.554 141.512 109.535 141.56C109.515 141.607 109.494 141.655 109.472 141.701C109.45 141.748 109.426 141.794 109.402 141.839C109.377 141.885 109.352 141.93 109.325 141.974C109.299 142.019 109.271 142.062 109.242 142.105C109.214 142.148 109.184 142.191 109.153 142.232C109.122 142.274 109.091 142.314 109.058 142.354C109.025 142.394 108.991 142.433 108.957 142.472C108.922 142.51 108.886 142.547 108.85 142.584C108.813 142.62 108.776 142.656 108.738 142.691C108.7 142.726 108.66 142.76 108.621 142.793C108.581 142.825 108.54 142.857 108.499 142.888C108.457 142.919 108.415 142.949 108.372 142.978C108.329 143.006 108.286 143.034 108.242 143.061C108.197 143.088 108.152 143.113 108.107 143.138C108.061 143.162 108.015 143.186 107.969 143.208C107.922 143.23 107.875 143.252 107.827 143.272C107.78 143.291 107.732 143.31 107.683 143.328C107.634 143.346 107.585 143.362 107.536 143.377C107.469 143.398 107.402 143.416 107.333 143.433C107.265 143.449 107.197 143.463 107.128 143.474C107.059 143.486 106.99 143.496 106.92 143.503C106.85 143.51 106.78 143.515 106.71 143.517C106.64 143.52 106.57 143.52 106.5 143.518C106.43 143.516 106.361 143.511 106.291 143.505C106.221 143.498 106.152 143.489 106.083 143.478C106.014 143.466 105.945 143.453 105.877 143.437C105.808 143.421 105.741 143.403 105.674 143.383C105.607 143.362 105.54 143.34 105.475 143.315C105.409 143.291 105.345 143.264 105.281 143.235C105.217 143.206 105.155 143.175 105.093 143.142C105.031 143.109 104.971 143.074 104.911 143.037C104.852 143 104.794 142.961 104.737 142.92C104.68 142.879 104.625 142.836 104.571 142.792C104.516 142.747 104.464 142.701 104.413 142.653C104.362 142.605 104.313 142.555 104.265 142.504C104.217 142.453 104.171 142.4 104.127 142.345C104.083 142.291 104.041 142.235 104 142.178C103.96 142.121 103.921 142.063 103.884 142.003C103.848 141.943 103.813 141.883 103.78 141.821C103.748 141.759 103.717 141.696 103.689 141.632C103.66 141.568 103.634 141.503 103.61 141.437C103.585 141.372 103.563 141.305 103.543 141.238C103.524 141.171 103.506 141.103 103.491 141.035C103.475 140.967 103.462 140.898 103.451 140.829C103.44 140.76 103.432 140.69 103.426 140.62C103.419 140.55 103.415 140.481 103.414 140.411C103.412 140.341 103.413 140.271 103.416 140.201C103.419 140.131 103.424 140.061 103.432 139.991C103.439 139.922 103.449 139.852 103.461 139.784C103.474 139.715 103.488 139.646 103.505 139.578C103.521 139.51 103.54 139.443 103.561 139.376C103.582 139.309 103.606 139.243 103.631 139.178C103.657 139.113 103.684 139.048 103.714 138.985C103.744 138.922 103.776 138.859 103.81 138.798C103.843 138.737 103.879 138.676 103.917 138.618C103.955 138.559 103.994 138.501 104.036 138.445C104.078 138.388 104.121 138.333 104.166 138.28C104.212 138.227 104.259 138.175 104.307 138.124C104.356 138.074 104.406 138.025 104.458 137.978C104.51 137.931 104.563 137.886 104.618 137.842C104.673 137.799 104.729 137.757 104.787 137.717C104.845 137.678 104.904 137.64 104.964 137.604C105.024 137.568 105.085 137.534 105.147 137.502C105.21 137.47 105.273 137.44 105.337 137.413C105.402 137.385 105.467 137.359 105.533 137.336C105.599 137.313 105.665 137.292 105.733 137.273Z" fill="#FEFEFE"/>
<path d="M51.8477 122.072C53.0897 114.593 56.2897 107.786 61.4057 102.171C68.8497 94.001 78.8116 89.5 89.8026 89.023C89.3146 89.411 89.5166 89.133 89.3606 89.685C88.9966 90.98 87.1857 92.708 86.1037 93.488C95.9527 93.078 103.483 94.159 111.691 100.055C111.588 100.138 111.486 100.222 111.382 100.303C110.941 100.645 110.512 100.763 109.984 100.919C109.697 101.287 109.573 101.481 109.405 101.931C102.12 97.002 93.5766 94.847 84.8546 96.531C84.5846 96.584 84.3157 96.64 84.0477 96.7C83.7797 96.76 83.5117 96.822 83.2457 96.889C82.9787 96.955 82.7126 97.025 82.4476 97.097C82.1826 97.17 81.9187 97.247 81.6557 97.326C81.3927 97.405 81.1306 97.488 80.8696 97.574C80.6076 97.66 80.3476 97.749 80.0896 97.841C79.8306 97.934 79.5727 98.029 79.3167 98.128C79.0597 98.227 78.8046 98.329 78.5506 98.434C78.2966 98.539 78.0436 98.647 77.7926 98.759C77.5416 98.87 77.2916 98.984 77.0426 99.102C76.7946 99.22 76.5476 99.34 76.3026 99.464C76.0566 99.588 75.8126 99.714 75.5706 99.844C75.3286 99.974 75.0876 100.107 74.8486 100.242C74.6096 100.378 74.3726 100.517 74.1366 100.658C73.9016 100.8 73.6677 100.944 73.4357 101.092C73.2037 101.239 72.9737 101.389 72.7457 101.543C72.5167 101.696 72.2907 101.851 72.0667 102.01C71.8417 102.169 71.6197 102.33 71.3987 102.495C71.1787 102.659 70.9607 102.826 70.7437 102.995C70.5277 103.165 70.3137 103.338 70.1017 103.513C69.8897 103.687 69.6797 103.865 69.4727 104.045C69.2647 104.225 69.0596 104.408 68.8566 104.593C68.6536 104.779 68.4527 104.966 68.2547 105.157C68.0557 105.347 67.8597 105.54 67.6667 105.735C67.4727 105.93 67.2817 106.127 67.0927 106.327C66.9047 106.527 66.7187 106.729 66.5347 106.933C66.3507 107.138 66.1697 107.345 65.9917 107.554C65.8127 107.763 65.6367 107.974 65.4637 108.187C65.2897 108.4 65.1196 108.616 64.9516 108.833C64.7836 109.051 64.6186 109.271 64.4556 109.492C64.2936 109.714 64.1337 109.938 63.9767 110.163C63.8197 110.389 63.6656 110.616 63.5146 110.846C58.9076 117.734 57.1886 126.861 58.8506 134.971C58.9056 135.239 58.9626 135.505 59.0246 135.772C59.0856 136.038 59.1497 136.303 59.2177 136.568C59.2847 136.832 59.3556 137.096 59.4306 137.359C59.5046 137.621 59.5816 137.883 59.6626 138.144C59.7436 138.405 59.8276 138.664 59.9146 138.923C60.0026 139.182 60.0926 139.439 60.1866 139.696C60.2806 139.952 60.3776 140.208 60.4776 140.462C60.5776 140.716 60.6806 140.968 60.7876 141.22C60.8936 141.471 61.0037 141.721 61.1167 141.97C61.2287 142.219 61.3447 142.466 61.4637 142.712C61.5827 142.958 61.7047 143.202 61.8297 143.445C61.9547 143.688 62.0817 143.929 62.2137 144.168C62.3447 144.408 62.4786 144.646 62.6156 144.882C62.7516 145.118 62.8917 145.353 63.0347 145.585C63.1777 145.818 63.3236 146.049 63.4716 146.278C63.6206 146.507 63.7716 146.734 63.9256 146.96C64.0806 147.185 64.2376 147.408 64.3976 147.63C64.5566 147.851 64.7196 148.071 64.8846 148.288C65.0506 148.505 65.2187 148.72 65.3887 148.933C65.5597 149.147 65.7326 149.358 65.9086 149.567C66.0846 149.775 66.2637 149.982 66.4447 150.186C66.6257 150.39 66.8097 150.593 66.9957 150.792C67.1817 150.992 67.3706 151.189 67.5616 151.384C67.7526 151.58 67.9456 151.772 68.1416 151.962C68.3376 152.153 68.5356 152.34 68.7366 152.526C68.9376 152.711 69.1406 152.893 69.3456 153.074C69.5506 153.254 69.7577 153.431 69.9677 153.606C70.1767 153.781 70.3886 153.954 70.6026 154.123C70.8166 154.293 71.0327 154.46 71.2507 154.624C71.4687 154.789 71.6886 154.95 71.9106 155.109C72.1326 155.268 72.3576 155.424 72.5836 155.577C72.8096 155.73 73.0366 155.881 73.2666 156.028C74.1666 156.614 75.0967 157.134 76.0457 157.637C78.4117 158.816 80.7937 159.754 83.3797 160.333C92.6707 162.417 101.22 160.406 109.148 155.367L110.518 154.328C116.682 149.242 120.85 143.002 122.58 135.13C124.439 126.67 122.6 118.024 117.991 110.768L115.769 107.625L116.476 107.774C116.757 108.175 116.946 108.328 117.384 108.545L117.649 108.352C117.778 107.429 117.352 106.632 117.286 105.715L117.255 105.226C117.444 105.441 117.631 105.658 117.816 105.877C118 106.097 118.182 106.318 118.361 106.542C118.54 106.766 118.716 106.992 118.889 107.221C119.063 107.449 119.233 107.679 119.401 107.911C119.569 108.144 119.734 108.378 119.895 108.615C120.058 108.851 120.217 109.089 120.373 109.33C120.529 109.57 120.682 109.812 120.832 110.056C120.982 110.3 121.13 110.546 121.274 110.794C121.418 111.042 121.559 111.291 121.697 111.542C121.835 111.793 121.97 112.046 122.102 112.301C122.234 112.555 122.363 112.811 122.488 113.069C122.614 113.327 122.736 113.586 122.855 113.846C122.975 114.107 123.091 114.369 123.203 114.632C123.316 114.896 123.426 115.161 123.532 115.427C123.638 115.693 123.741 115.96 123.841 116.229C123.941 116.498 124.037 116.768 124.13 117.039C124.223 117.31 124.313 117.582 124.4 117.855C124.486 118.128 124.569 118.403 124.649 118.678C124.729 118.953 124.805 119.229 124.878 119.506C124.951 119.784 125.02 120.062 125.087 120.341C125.153 120.619 125.215 120.899 125.275 121.18C125.334 121.46 125.39 121.741 125.442 122.023C125.495 122.305 125.543 122.587 125.589 122.87C125.634 123.153 125.676 123.436 125.715 123.72C125.753 124.004 125.788 124.289 125.82 124.574C125.851 124.858 125.879 125.144 125.904 125.429C125.929 125.715 125.95 126.001 125.967 126.286C125.985 126.573 125.999 126.859 126.009 127.145C126.02 127.432 126.027 127.718 126.03 128.005C126.034 128.291 126.034 128.578 126.03 128.865C126.027 129.151 126.02 129.438 126.009 129.724C125.998 130.01 125.984 130.296 125.967 130.583C125.949 130.876 125.928 131.169 125.903 131.462C125.878 131.755 125.849 132.047 125.816 132.339C125.784 132.631 125.748 132.923 125.709 133.214C125.669 133.505 125.626 133.796 125.58 134.086C125.533 134.376 125.483 134.666 125.429 134.955C125.375 135.244 125.318 135.532 125.257 135.819C125.196 136.107 125.131 136.394 125.063 136.68C124.995 136.965 124.923 137.25 124.848 137.535C124.773 137.819 124.695 138.102 124.613 138.384C124.53 138.666 124.445 138.947 124.356 139.227C124.267 139.508 124.174 139.786 124.078 140.064C123.982 140.342 123.883 140.619 123.78 140.894C123.677 141.169 123.571 141.443 123.462 141.716C123.352 141.989 123.239 142.26 123.123 142.53C123.007 142.8 122.887 143.068 122.764 143.335C122.641 143.602 122.515 143.867 122.385 144.131C122.256 144.395 122.123 144.657 121.987 144.918C121.851 145.178 121.712 145.437 121.57 145.694C121.428 145.951 121.282 146.207 121.134 146.46C120.985 146.714 120.833 146.965 120.678 147.215C120.523 147.465 120.365 147.713 120.204 147.958C120.043 148.204 119.879 148.448 119.712 148.69C119.545 148.932 119.375 149.171 119.202 149.409C119.029 149.647 118.853 149.882 118.675 150.115C118.496 150.348 118.314 150.579 118.13 150.808C117.945 151.037 117.758 151.263 117.568 151.487C117.378 151.712 117.185 151.933 116.989 152.153C116.794 152.372 116.595 152.589 116.394 152.803C116.193 153.018 115.99 153.23 115.784 153.439C115.577 153.649 115.369 153.855 115.157 154.06C114.946 154.264 114.732 154.466 114.516 154.664C114.3 154.864 114.081 155.06 113.86 155.253C113.635 155.449 113.408 155.642 113.178 155.832C112.949 156.021 112.717 156.208 112.482 156.392C112.248 156.577 112.011 156.758 111.772 156.936C111.534 157.114 111.293 157.289 111.049 157.461C110.806 157.633 110.561 157.802 110.313 157.968C110.065 158.134 109.816 158.296 109.564 158.456C109.313 158.615 109.059 158.772 108.803 158.925C108.548 159.078 108.29 159.228 108.031 159.375C107.771 159.521 107.51 159.665 107.247 159.805C106.984 159.945 106.72 160.082 106.453 160.215C106.187 160.348 105.919 160.479 105.649 160.605C105.379 160.732 105.108 160.855 104.835 160.975C104.562 161.095 104.288 161.211 104.012 161.324C103.736 161.437 103.459 161.547 103.181 161.652C102.902 161.758 102.623 161.861 102.342 161.96C102.06 162.059 101.778 162.154 101.495 162.246C101.211 162.337 100.926 162.426 100.641 162.51C100.355 162.595 100.068 162.676 99.7807 162.753C99.4927 162.831 99.2036 162.904 98.9146 162.974C98.6246 163.044 98.3346 163.111 98.0426 163.174C97.7516 163.237 97.4597 163.296 97.1667 163.351C96.8737 163.406 96.5807 163.458 96.2867 163.506C95.9927 163.554 95.6976 163.599 95.4026 163.639C95.1076 163.68 94.8117 163.717 94.5157 163.75C94.2197 163.783 93.9236 163.812 93.6266 163.838C93.3296 163.864 93.0326 163.886 92.7346 163.904C92.4376 163.922 92.1396 163.937 91.8416 163.947C91.5446 163.958 91.2467 163.965 90.9487 163.968C90.6507 163.971 90.3526 163.971 90.0546 163.966C89.7566 163.962 89.4586 163.954 89.1606 163.942C88.8636 163.931 88.5656 163.915 88.2686 163.896C87.9706 163.876 87.6737 163.853 87.3777 163.827C78.2787 163.096 69.5957 158.366 63.7567 151.391C63.5707 151.169 63.3866 150.945 63.2056 150.719C63.0256 150.493 62.8477 150.264 62.6727 150.034C62.4977 149.803 62.3247 149.57 62.1557 149.335C61.9857 149.1 61.8196 148.864 61.6566 148.625C61.4926 148.386 61.3317 148.145 61.1747 147.902C61.0167 147.659 60.8626 147.414 60.7106 147.167C60.5596 146.92 60.4107 146.672 60.2657 146.421C60.1197 146.171 59.9777 145.919 59.8387 145.665C59.6997 145.411 59.5636 145.155 59.4306 144.898C59.2976 144.641 59.1677 144.382 59.0417 144.121C58.9147 143.861 58.7916 143.599 58.6716 143.335C58.5516 143.071 58.4347 142.806 58.3217 142.54C58.2077 142.273 58.0976 142.006 57.9906 141.737C57.8836 141.467 57.7806 141.197 57.6806 140.925C57.5806 140.654 57.4836 140.381 57.3896 140.107C57.2966 139.832 57.2066 139.557 57.1196 139.281C57.0326 139.005 56.9496 138.727 56.8696 138.449C56.7896 138.171 56.7137 137.891 56.6407 137.611C56.5677 137.331 56.4986 137.05 56.4326 136.768C56.3666 136.486 56.3036 136.203 56.2446 135.92C56.1856 135.636 56.1306 135.352 56.0786 135.067C56.0266 134.782 55.9776 134.497 55.9326 134.211C55.8876 133.924 55.8467 133.638 55.8087 133.351C55.7707 133.064 55.7366 132.776 55.7056 132.488C55.6746 132.2 55.6476 131.912 55.6236 131.623C55.6006 131.335 55.5806 131.046 55.5636 130.757C55.5466 130.468 55.5336 130.178 55.5246 129.889C55.5156 129.599 55.5097 129.31 55.5067 129.02C55.5047 128.731 55.5057 128.441 55.5107 128.152C55.5157 127.862 55.5247 127.573 55.5367 127.283C55.5487 126.994 55.5636 126.705 55.5836 126.416C55.6026 126.127 55.6256 125.838 55.6516 125.55C56.0056 121.578 57.0057 117.992 58.4677 114.296C57.8807 113.692 57.5616 113.599 56.7276 113.576C56.1456 113.559 55.6446 113.622 55.1866 114.027C52.8506 116.089 53.5187 120.263 52.0257 122.533L51.8477 122.072Z" fill="#401C13"/>
<path d="M51.8477 122.072C53.0897 114.593 56.2897 107.786 61.4057 102.171C68.8497 94.001 78.8116 89.5 89.8026 89.023C89.3146 89.411 89.5166 89.133 89.3606 89.685C88.9966 90.98 87.1857 92.708 86.1037 93.488C75.9787 95.398 67.4166 100.146 61.4906 108.778C60.3536 110.435 59.1387 112.401 58.4677 114.296C57.8807 113.692 57.5616 113.599 56.7276 113.576C56.1456 113.559 55.6446 113.622 55.1866 114.027C52.8506 116.089 53.5187 120.263 52.0257 122.533L51.8477 122.072Z" fill="#FCD84E"/>
<path d="M109.148 155.367L110.518 154.328C111.19 154.717 111.815 154.993 112.187 155.71C112.066 156.045 112.114 156.189 111.757 156.339C111.245 156.555 110.492 156.589 109.987 156.324C109.593 156.118 109.381 155.725 109.148 155.367Z" fill="#391B10"/>
<path d="M77.3047 88.441C94.6517 73.154 117.548 65.185 140.415 63.661C168.443 61.793 198.204 68.799 219.705 87.616L216.334 86.777C215.99 86.716 215.646 86.66 215.301 86.608C214.956 86.556 214.611 86.508 214.266 86.464C213.919 86.421 213.572 86.381 213.226 86.346C212.879 86.311 212.532 86.28 212.183 86.254C211.835 86.227 211.487 86.205 211.138 86.187C210.79 86.169 210.442 86.155 210.093 86.146C209.745 86.137 209.396 86.132 209.046 86.131C208.698 86.13 208.349 86.134 208.001 86.141C207.653 86.149 207.304 86.162 206.954 86.178C206.605 86.194 206.258 86.215 205.911 86.24C205.563 86.265 205.215 86.295 204.869 86.328C204.52 86.362 204.174 86.4 203.829 86.442C203.482 86.484 203.136 86.53 202.791 86.581C202.446 86.632 202.102 86.687 201.758 86.746C201.413 86.805 201.07 86.869 200.728 86.936C200.386 87.004 200.045 87.076 199.705 87.152C199.365 87.228 199.026 87.308 198.687 87.393C198.349 87.477 198.011 87.565 197.674 87.658C197.339 87.751 197.003 87.848 196.668 87.949C196.334 88.05 196.002 88.155 195.672 88.264C195.34 88.373 195.01 88.487 194.681 88.604C194.354 88.722 194.027 88.843 193.702 88.968C193.376 89.094 193.052 89.223 192.73 89.356C192.408 89.49 192.087 89.627 191.768 89.769C191.449 89.91 191.132 90.055 190.816 90.204C190.5 90.353 190.187 90.506 189.876 90.663C189.565 90.82 189.256 90.981 188.948 91.145C188.641 91.31 188.335 91.478 188.03 91.65C187.728 91.822 187.427 91.998 187.127 92.178C186.828 92.357 186.531 92.54 186.236 92.727C185.941 92.914 185.649 93.104 185.359 93.298C185.07 93.492 184.782 93.69 184.498 93.891C184.213 94.093 183.93 94.3 183.648 94.51C183.368 94.719 183.091 94.932 182.816 95.149C182.54 95.366 182.268 95.586 181.998 95.809C181.729 96.032 181.462 96.259 181.197 96.489C180.933 96.719 180.672 96.952 180.413 97.189C180.156 97.425 179.901 97.664 179.649 97.907C179.397 98.15 179.147 98.395 178.899 98.644C178.654 98.893 178.41 99.145 178.17 99.4C177.93 99.655 177.693 99.913 177.459 100.173C177.226 100.434 176.996 100.698 176.768 100.964C176.542 101.231 176.318 101.5 176.097 101.772C175.875 102.044 175.658 102.318 175.445 102.596C175.232 102.873 175.022 103.153 174.815 103.435C174.608 103.718 174.405 104.003 174.205 104.29C174.004 104.578 173.808 104.868 173.616 105.16C173.423 105.453 173.233 105.747 173.047 106.044C172.862 106.341 172.68 106.641 172.503 106.942C172.326 107.244 172.151 107.548 171.981 107.853C171.81 108.159 171.643 108.467 171.48 108.777C171.317 109.087 171.159 109.399 171.004 109.713C170.848 110.027 170.696 110.342 170.55 110.66C170.402 110.978 170.259 111.297 170.12 111.618C169.98 111.939 169.844 112.262 169.712 112.587C169.581 112.911 169.453 113.237 169.329 113.565C169.207 113.893 169.088 114.222 168.973 114.552C168.857 114.883 168.746 115.215 168.638 115.548C168.531 115.882 168.428 116.216 168.331 116.552C168.231 116.888 168.136 117.225 168.045 117.564C167.955 117.902 167.869 118.241 167.786 118.581C167.705 118.922 167.627 119.263 167.552 119.606C167.479 119.948 167.409 120.291 167.344 120.635C167.279 120.979 167.218 121.324 167.161 121.669C167.044 122.357 166.932 123.044 166.856 123.737C157.691 119.104 146.587 118.497 136.845 121.698C135.475 122.148 134.176 122.693 132.879 123.317C130.7 111.151 125.26 100.932 114.969 93.734C105.307 86.976 93.7707 84.93 82.2737 87.059C81.3407 87.236 80.4127 87.436 79.4897 87.658C78.8647 88 77.9867 88.205 77.3047 88.441Z" fill="#E3A969"/>
<path d="M77.3047 88.441C94.6517 73.154 117.548 65.185 140.415 63.661C168.443 61.793 198.204 68.799 219.705 87.616L216.334 86.777C214.476 84.308 206.033 80.478 202.984 79.158C173.912 66.586 139.866 64.937 109.493 73.726C104.359 75.212 99.5007 77.285 94.5387 79.246C91.6227 80.64 88.7837 82.168 85.8857 83.595C83.8047 85.02 81.3707 85.958 79.4897 87.658C78.8647 88 77.9867 88.205 77.3047 88.441Z" fill="#F0C799"/>
<path d="M55.1031 54.623C58.3671 49.387 62.8821 45.619 68.9751 44.195C73.0011 43.255 77.1761 43.409 80.7631 45.683C87.0551 49.672 90.3351 57.829 93.3161 64.299C94.2621 66.353 95.4751 68.49 95.9261 70.715C95.9431 70.796 95.9521 70.879 95.9651 70.961C95.6991 71.283 95.4851 71.51 95.1601 71.782C92.9461 72.227 89.1541 75.092 87.1321 76.355C86.9801 75.954 86.8241 75.554 86.6651 75.156C84.3151 69.214 80.1901 61.168 73.9031 58.597C73.7411 58.531 73.5781 58.469 73.4141 58.411C73.2491 58.354 73.0831 58.3 72.9161 58.251C72.7481 58.202 72.5801 58.157 72.4101 58.116C72.2411 58.076 72.0701 58.039 71.8991 58.008C71.7271 57.975 71.5551 57.948 71.3821 57.925C71.2091 57.902 71.0361 57.883 70.8621 57.869C70.6891 57.854 70.5151 57.844 70.3401 57.839C70.1661 57.833 69.9921 57.833 69.8171 57.836C69.6431 57.839 69.4691 57.847 69.2951 57.859C69.1211 57.872 68.9471 57.889 68.7741 57.91C68.6011 57.931 68.4281 57.956 68.2571 57.986C68.0851 58.016 67.9141 58.05 67.7441 58.089C67.5741 58.128 67.4051 58.171 67.2371 58.218C67.0691 58.265 66.9021 58.316 66.7371 58.372C66.5721 58.428 66.4081 58.488 66.2461 58.552C66.0841 58.616 65.9231 58.684 65.7651 58.756C63.8481 59.61 62.3711 60.934 61.6521 62.92C61.7641 62.91 61.8771 62.903 61.9891 62.89C62.8181 62.797 63.7291 62.218 64.4801 61.867C67.9591 60.241 71.0361 60.365 74.2381 62.69C79.1361 66.247 82.1341 72.711 84.5241 78.119C79.5951 81.73 75.4081 85.837 71.0541 90.093C70.6191 90.628 70.2691 91.064 69.6641 91.423C65.2361 89.666 57.6381 82.602 54.9591 78.63C52.0041 74.249 50.5781 68.979 51.6171 63.741C52.2061 60.363 53.3671 57.571 55.1031 54.623Z" fill="#E3A969"/>
<path d="M61.6524 62.92C61.7644 62.91 61.8774 62.903 61.9894 62.89C62.8184 62.797 63.7294 62.218 64.4804 61.867C67.9594 60.241 71.0364 60.365 74.2384 62.69C79.1364 66.247 82.1344 72.711 84.5244 78.119C79.5954 81.73 75.4084 85.837 71.0544 90.093C66.9664 87.135 63.4104 83.54 61.3374 78.849C58.9534 73.456 59.5694 68.292 61.6524 62.92Z" fill="#BF8353"/>
<path d="M55.1032 54.623C58.3672 49.387 62.8822 45.619 68.9752 44.195C73.0012 43.255 77.1762 43.409 80.7632 45.683C87.0552 49.672 90.3352 57.829 93.3162 64.299C94.2622 66.353 95.4752 68.49 95.9262 70.715C95.9432 70.796 95.9522 70.879 95.9652 70.961C95.6992 71.283 95.4852 71.51 95.1602 71.782C93.9752 69.997 93.2262 67.636 92.2292 65.7C89.8132 61.007 85.8232 55.339 81.6322 52.096C78.3242 49.537 74.3702 48.052 70.1442 48.652C63.7312 49.561 58.8462 53.547 55.0672 58.583C53.9122 60.358 52.9362 62.166 51.9892 64.06C51.6512 63.927 51.7682 64.041 51.6172 63.741C52.2062 60.363 53.3672 57.571 55.1032 54.623Z" fill="#F0C799"/>
<path d="M202.874 71.628L202.227 71.119C201.99 68.035 210.352 53.131 212.393 50.468C215.047 47.006 218.482 44.35 222.928 43.78C228.123 43.114 233.316 44.99 237.374 48.166C242.144 51.897 245.667 57.85 246.397 63.875C247.593 68.115 246.151 73.137 244.061 76.861C241.632 81.193 233.712 89.187 228.856 90.439C228.087 90.637 227.669 90.224 227.027 89.866C222.484 85.771 218.499 81.689 213.426 78.174C216.248 72.576 219.058 65.485 224.681 62.114C229.459 59.25 231.773 61.782 236.219 62.924C236.287 62.942 236.356 62.957 236.426 62.974C235.731 61.087 234.244 59.785 232.452 58.924C230.018 57.752 227.342 57.508 224.778 58.413C219.002 60.45 214.769 67.255 212.379 72.543C211.807 73.808 211.292 75.129 210.982 76.483C210.235 75.949 209.297 75.418 208.641 74.794C206.685 73.804 204.854 72.597 202.874 71.628Z" fill="#E3A969"/>
<path d="M213.426 78.174C216.248 72.576 219.058 65.485 224.681 62.114C229.459 59.25 231.773 61.782 236.219 62.924C236.287 62.942 236.356 62.957 236.426 62.974C238.304 68.816 238.953 74.425 236.019 80.055C233.907 84.104 230.66 87.184 227.027 89.866C222.484 85.771 218.499 81.689 213.426 78.174Z" fill="#BF8353"/>
<path d="M202.874 71.628L202.227 71.119C201.99 68.035 210.352 53.131 212.393 50.468C215.047 47.006 218.482 44.35 222.928 43.78C228.123 43.114 233.316 44.99 237.374 48.166C242.144 51.897 245.667 57.85 246.397 63.875L246.165 63.972C242.557 57.323 238.297 51.475 230.696 49.231C226.536 48.003 222.52 48.469 218.741 50.573C213.875 53.283 206.556 62.888 204.671 68.036C203.99 69.213 203.411 70.378 202.874 71.628Z" fill="#F0C799"/>
<path d="M204.671 68.036C204.498 69.384 204.305 70.361 205.147 71.541C205.953 72.675 208.421 73.47 208.641 74.794C206.685 73.804 204.854 72.597 202.874 71.628C203.411 70.378 203.99 69.213 204.671 68.036Z" fill="#DDAE85"/>
<path d="M133.06 126.249C142.288 122.022 152.606 121.15 162.208 124.733C163.79 125.323 165.247 126.044 166.707 126.891L166.732 131.583C162.781 128.672 157.525 127.224 152.681 126.9C146.595 126.493 137.779 127.077 132.934 131.312C133.009 129.625 133.051 127.938 133.06 126.249Z" fill="#E3A969"/>
<path d="M65.4762 159.138L67.3721 160.612C67.2741 161.326 67.3152 161.541 66.8242 162.092C66.1472 162.232 65.5581 162.233 64.8741 162.208L64.2021 161.715C64.4021 161.242 64.2971 161.398 64.5681 161.052C65.1101 160.36 65.3252 160.01 65.4762 159.138Z" fill="#391B10"/>
<path d="M164.273 133.172L163.775 132.268C163.882 131.694 163.758 131.761 164.278 131.388C165.174 131.287 165.826 131.585 166.653 131.901C166.412 132.402 165.367 132.933 164.81 133.124C164.595 133.197 164.476 133.179 164.273 133.172Z" fill="#391B10"/>
</g>
<defs>
<clipPath id="clip0_4388_4741">
<rect width="245" height="222" fill="white" transform="translate(27 39)"/>
</clipPath>
</defs>
</svg>
